<?xml version='1.0' encoding='utf-8'?>
<!-- Generator: imaengine 6.0   -->
<svg xmlns:xlink="http://www.w3.org/1999/xlink" xmlns="http://www.w3.org/2000/svg" viewBox="0,0,1415,665" style="enable-background:new 0 0 1415 665;" version="1.1">
<defs/>
<g id="layer0">
<path d="M708.405,651.137C875.657,651.297 1016.34,651.134 1021,650.777C1029.14,650.154 1029.84,649.873 1033.23,646.301C1035.17,644.255 1054.52,624.576 1076.25,602.564C1123.52,554.67 1138.04,539.11 1138.91,535.648C1139.63,532.769 1139.13,523.83 1137.49,510.956C1136.42,502.509 1135.42,493.349 1132.85,468.464C1132.11,461.314 1130.96,450.61 1130.3,444.68C1129.38,436.456 1126.72,433.153 1133.97,431.53C1141.22,429.906 1158.05,430.347 1195.7,430.347C1252.5,430.347 1259.59,430.138 1262.46,428.668C1264.22,427.766 1271.43,421.52 1278.38,414.86C1300.59,393.571 1334.47,361.809 1342.73,354.528C1347.13,350.649 1354.65,343.72 1359.53,339.066L1368.27,330.291L1368.09,324.896C1367.64,320.258 1363.16,293.527 1357.88,263.939C1356.5,256.199 1353.23,235.04 1351.97,225.662C1351.69,223.577 1350.02,219.842 1348.34,217.556C1344.98,212.998 1344.77,211.693 1346.47,206.044C1347.41,202.884 1347.17,199.636 1344.95,187.267C1340.82,164.237 1336.37,140.13 1334.82,132.432C1334.04,128.582 1332.71,121.169 1331.86,115.944C1326.92,85.8368 1328.6,89.2702 1309.97,71.2509C1280.12,42.3592 1270.38,33.8088 1266.91,33.1892C1260.33,32.0148 115.932,33.1778 114.75,34.3594C113.448,35.6613 105.686,64.6843 101.527,83.9268C99.9217,91.3518 96.8348,105.072 94.6655,114.422C92.4961,123.772 89.1277,138.852 87.1817,147.927C85.2357,157.002 82.7485,168.246 81.6529,172.921C80.5573,177.596 78.3363,187.501 76.7189,194.926C69.2348,229.284 65.3827,246.297 62.6832,256.915C61.0752,263.24 58.3516,274.952 56.6343,282.927C54.9171,290.902 51.729,304.689 49.5469,313.576C47.0449,323.767 45.822,330.867 46.2353,332.514C46.9906,335.523 137.999,425.747 143.113,428.554C146.07,430.177 151.908,430.347 221.178,430.347L295.887,430L297.097,432.223C298.878,434.766 299.049,438.7 297.735,447.366C297.228,450.711 296.311,459.094 295.7,465.969C295.089,472.844 294.158,482.059 293.629,486.459C288.102,532.457 288.167,532.243 290.216,536.206C292.012,539.679 397.494,646.658 401.722,649.294C403.844,650.617 440.174,650.881 708.405,651.137ZM528.467,631.405L410.435,632.008L393.301,614.254C336.384,556.448 313.534,532.985 311.595,530.717C309.516,528.284 309.535,527.927 310.388,518.473C312.949,490.097 316.406,457.144 319.42,432.385C320.635,422.399 321.334,413.345 320.998,412.469C320.445,411.029 311.956,410.653 235.644,410.653L151.224,411L126.686,386.75C112.999,373.412 93.7184,354.521 83.9685,345.074C64.0862,325.809 65.2488,328.221 68.2642,314.399C69.3232,309.545 71.5571,299.274 73.2284,291.574C81.4467,253.709 85.5345,234.996 86.8801,229.077C91.0196,210.868 97.7991,180.285 101.844,161.573C104.341,150.023 107.016,137.879 107.79,134.579C108.564,131.279 109.697,125.863 110.304,122.563C110.911,119.263 111.824,114.779 112.339,112.579C114.773,102.165 120.406,77.6038 122.315,69.0757C123.485,63.8507 124.855,57.9739 125.397,55.9114L126.077,52L695.289,52.0401L1264.5,52.0803L1287.27,73.9865C1308.88,94.468 1310.43,96.2297 1311.1,100.253C1311.5,102.62 1312.43,108.379 1313.17,113.054C1314.56,121.831 1317.39,138.222 1320.08,153.062C1321.85,162.818 1326.1,187.757 1327.5,196.597L1328.78,202.485L1324.54,207.131C1319.53,213.12 1319.71,213.969 1326.25,220.154C1332.81,226.36 1333.26,227.091 1334.15,233.547C1335.91,246.394 1344.68,299.888 1346.68,310.067C1349.09,322.3 1349.17,322.646 1346.11,325.433C1339.42,331.534 1316.63,352.803 1309.26,359.816C1304.86,364.004 1298.12,370.288 1294.27,373.786C1290.42,377.285 1281.64,385.414 1274.76,391.847C1267.89,398.28 1260.41,405.097 1258.02,407.078L1253.81,411L1180.87,411C1116.1,411 1107.55,411.048 1107.02,412.417C1106.47,413.846 1107.48,424.318 1111.16,454.542C1113.85,476.552 1118.65,523.061 1118.65,527.074C1118.65,531.667 1110.82,539.966 1051.06,599.477L1018.79,632.076L832.992,631.785C730.612,631.625 593.385,631.264 528.467,631.405Z" fill-rule="evenodd" fill="#1FC5D6"/>
<path d="M714.914,631.094L1020,630.839L1052.17,599.17C1110.99,540.638 1119.35,531.665 1119.35,527.074C1119.35,523.039 1114.51,476.216 1111.85,454.458C1107.69,420.486 1106.92,413.168 1108.01,412.081C1108.78,411.313 1130.85,410.954 1182.13,410.646L1255.4,409.859L1259.29,406.798C1261.25,405.114 1268.36,398.74 1275.24,392.324C1282.11,385.907 1290.88,377.798 1294.73,374.299C1298.58,370.801 1305.34,364.506 1309.74,360.318C1317.11,353.305 1339.89,332.046 1346.58,325.945C1349.64,323.158 1349.77,322.166 1347.36,309.933C1345.36,299.754 1336.6,246.3 1334.83,233.453C1333.95,226.996 1333.29,225.856 1326.73,219.65C1320.19,213.466 1320.05,213.418 1325.07,207.429L1328.78,202.485L1328.18,196.493C1326.78,187.653 1322.54,162.694 1320.77,152.938C1318.07,138.098 1315.24,121.722 1313.85,112.946C1310.85,94.0052 1313.52,98.0608 1287.89,73.8738L1264.75,52.5L695.346,52.5L125.943,52.5L124.677,56C124.171,57.925 122.809,63.6993 121.639,68.9243C119.729,77.4523 114.098,102.007 111.663,112.421C111.149,114.621 110.229,119.137 109.622,122.437C109.016,125.737 107.889,131.121 107.115,134.421C106.341,137.721 103.663,149.877 101.167,161.427C97.1214,180.139 90.3435,210.714 86.204,228.923C84.8584,234.842 80.7692,253.562 72.5508,291.426C70.8796,299.126 68.6458,309.398 67.5868,314.252C64.5714,328.073 63.6037,326.307 83.486,345.572C93.236,355.019 112.501,373.724 126.188,387.062L151.224,411L235.644,411C311.956,411 319.798,411.277 320.35,412.717C320.687,413.594 319.947,422.315 318.732,432.301C315.718,457.061 312.259,490.034 309.697,518.411C308.844,527.864 308.989,528.735 311.068,531.167C313.052,533.488 347.698,568.82 392.49,614.233L409.832,631.348L714.914,631.094ZM458.132,600.403L417.766,601.023L396.98,580.569C385.357,569.32 366.231,550.646 354.718,539.453L333.632,519.415L335.728,502.457C336.69,493.131 338.802,473.613 340.423,459.038C342.045,444.463 344.031,426.236 344.837,418.536C345.643,410.836 346.747,401.17 347.292,397.045C347.836,392.92 348.299,387.142 348.316,384.254L348,379L251.985,379L155.969,379L140.081,363.791C131.152,355.426 118.116,342.871 111.241,336.196C104.366,329.52 96.8664,322.404 94.6969,320.465L90.6109,317.255L100.794,268.378C106.204,241.495 110.946,217.529 111.337,215.054C111.728,212.579 113.891,201.57 116.146,190.57C118.402,179.57 123.004,156.617 126.372,139.567C129.741,122.517 133.845,102.273 135.495,94.5726C137.144,86.8726 138.746,78.6394 139.049,76.3107C139.352,73.982 140.037,71.8347 140.721,71.2675C141.528,70.597 152.019,70.4089 171.119,70.5814L200.5,70.5L200.77,91.75L201.04,113L203.669,113L206.299,113L205.743,129L205.188,145L213.535,145C218.126,145 222.452,144.737 222.788,144.194C223.124,143.65 223.848,138.208 224.335,132.29C224.822,126.371 225.515,119.695 225.895,117.357L226.256,113L231.653,113C238.191,113 238.835,112.508 239.784,99.4942C240.367,91.5137 241.339,83.3488 242.91,73.354L243.091,70L270.045,70L297,70L296.653,74.8136C296.653,79.2172 295.057,92.4082 292.526,108.948C291.979,112.523 290.892,121.312 290.113,128.462C289.334,135.612 288.055,146.859 287.27,153.459C286.485,160.059 285.128,171.913 284.255,179.797C283.382,187.682 282.51,194.325 282.256,194.736C282.002,195.146 281.258,200.77 280.664,207.05C280.069,213.329 279.172,220.455 278.662,222.93C278.152,225.405 277.219,231.734 276.594,236.959C275.97,242.184 274.874,251.182 274.159,256.957C273.444,262.732 272.3,272.411 271.618,278.461C270.936,284.511 270.007,289.848 269.466,290.536C268.738,291.461 263.588,291.653 248.878,291.653C238.995,291.653 234.064,291.652 231.565,291.378C229.066,291.104 229.347,290.903 229.347,289.818C229.347,286.582 231.224,270.439 232.399,263.558C232.963,260.258 233.842,253.712 234.349,249.037C235.372,239.613 237.449,223.301 239.761,206.547C240.871,198.5 241.404,192.324 241.354,188.21C241.304,184.097 240.327,181.653 239.119,181.653C238.289,181.653 237.464,182.189 237.101,183.516C236.739,184.843 236.494,187.284 236.18,191.474C235.984,194.087 235.708,196.429 235.414,198.151C235.121,199.873 235.156,200.653 234.907,200.653C234.657,200.653 234.095,201.301 233.931,201.928C233.767,202.555 233.653,203.507 233.653,204.458L234,207.916L226.25,208.208L218.5,208.5L217.404,218.5C216.992,224 216.198,230.731 215.609,233.619L214.858,239L199.879,239L184.9,239L185.598,224L186.297,209L181.23,209C173.285,209 173.349,208.73 173.331,201.142C173.323,197.643 173.018,194.86 172.581,193.438C172.145,192.015 170.908,191.831 170.316,193.374C169.964,194.29 169.653,196.702 169.653,198.582C169.653,199.522 169.567,200.292 169.411,200.911C169.254,201.531 169.375,201.653 169.138,201.653C168.901,201.653 168.272,202.682 167.993,203.906C167.714,205.129 167.442,206.859 167.256,208.715C166.885,212.428 165.964,218.812 165.205,222.937C164.446,227.062 163.097,235.4 162.21,241.45C159.68,258.705 157.848,270.55 156.005,281.499L154.632,291.719L143.814,292.359C138.054,292.712 128.857,292.653 122.951,292.653C110.599,292.653 110.653,292.681 110.653,302.524L111,308.884L136.75,333.441L162.5,357.998L266.898,357.999L371.295,358L370.283,366.655C369.917,371.415 368.246,387.69 366.567,402.867C364.888,418.044 363.13,434.517 362.661,439.467C361.734,449.245 360.395,461.467 358.117,480.96C357.313,487.835 356.374,497.73 356.029,502.955L355.744,512.5L377.276,534.058C389.308,545.914 404.911,561.256 411.707,567.769L424.213,579.298L482.225,578.763L540.237,578.228L550.732,568.114C556.314,562.551 560.8,558.347 561.125,558.347C561.45,558.347 566.256,563.035 571.996,568.81L582.589,579L635.544,578.967L688.5,578.935L701.667,567.467C708.719,561.16 714.566,556.347 715.086,556.347C715.605,556.347 721.208,561.487 727.722,567.812L739.716,579L788.853,579L837.99,579L849.936,568.25C855.362,563.22 858.909,560.353 861.442,558.71C863.975,557.068 864.866,556.851 865.605,557.882C865.942,558.353 871.474,563.519 877.73,569.224L889.247,579.282L946.753,578.787L1004.26,578.291L1017.72,564.896C1024.93,557.528 1039.83,542.494 1051.07,531.109L1071.34,510.099L1070.52,503.3C1069.88,499.56 1068.69,489.492 1067.87,480.967C1067.06,472.442 1065.7,459.162 1064.85,451.462C1064,443.762 1062.88,433.415 1062.38,428.465C1061.87,423.515 1060.27,407.989 1058.81,393.964C1057.35,379.939 1056.09,366.228 1056,363.478L1055.5,358.5L1147.96,358.245L1240.43,357.99L1255.81,343.245C1264.08,335.135 1275.36,324.3 1280.99,318.862C1292.35,307.906 1292.82,306.472 1289.91,296.821L1288.26,292.5L1267.78,292.876L1247.3,293.253L1246.95,290.876C1246.3,288.643 1245.33,283.119 1241.75,261.443C1240.93,256.493 1239.02,245.41 1237.51,236.885L1234.45,221.5L1214.73,221.229L1195,220.958L1194.65,223.536C1194.65,224.954 1195.08,228.076 1195.58,230.382C1196.09,232.688 1197.24,239.501 1198.13,245.551C1199.03,251.601 1200.4,260.604 1201.18,265.554C1204.03,283.632 1204.83,289.815 1204.21,290.806C1203.82,291.436 1195.98,291.653 1182.92,291.653C1162.12,291.653 1162.27,291.853 1161.37,289.62C1160.87,288.382 1159.06,277.775 1157.33,265.95C1151.38,225.332 1150.35,218.427 1149.38,212.94C1148.84,209.915 1147.9,203.184 1147.28,197.959C1146.65,192.734 1145.94,188.063 1145.75,187.75C1145.56,187.436 1144.96,182.407 1144.35,176.396C1143.75,170.384 1142.63,161.619 1141.86,156.944C1139.18,140.628 1138.28,134.4 1137.31,125.462C1136.18,115.083 1133.97,101.063 1133.12,98.8748C1132.54,97.3808 1130.35,76.208 1130.35,72.1384L1130,70L1183.16,70L1236.32,70L1247.57,81.388C1253.94,87.6515 1262.72,96.0273 1266.93,99.6811C1275.37,107.01 1275.22,106.736 1276.15,113.669C1276.52,116.351 1277.88,123.967 1279.17,130.567C1280.46,137.167 1282.47,147.737 1283.62,154.062C1284.78,160.387 1286.16,167.465 1286.69,169.771C1288.62,178.102 1288.09,180.696 1283.18,186.947C1274.47,198.036 1274.48,197.389 1285.26,208.307L1294.8,217.5L1297.14,232C1298.62,239.975 1301.13,253.316 1302.73,261.566C1304.32,269.816 1306.27,280.605 1307.07,285.555C1307.87,290.505 1309.23,298.557 1310.09,303.441C1312.4,316.527 1312.91,315.174 1301.5,325.636C1295.87,330.801 1284.28,341.833 1275.75,350.143C1267.21,358.453 1257.11,368.224 1253.19,371.937L1246.19,379L1161.6,379L1077,379L1076.65,381.29C1076.65,382.55 1077.3,388.557 1078.09,394.585C1079.51,405.436 1080.41,413.357 1085.2,457.038C1090.05,501.306 1090.76,508.855 1090.46,513.72L1090.5,518.694L1064.65,544.973C1050.63,559.426 1033.04,577.43 1025.34,585.358L1011.5,600.08L946.728,600.247L881.955,600.414L873.555,591.707C868.743,586.918 864.01,582.653 863.459,582.653C862.909,582.653 858.271,586.74 853.344,591.69L844.542,601L789,601L733.458,601L724.847,592C719.92,587.05 714.903,582.653 714.123,582.653C713.343,582.653 708.586,586.513 703.736,591.188L695.069,600L636.256,600L577.442,600L571.318,593.428C561.651,583.612 562.061,583.345 552.399,592.117L544.207,600L521.007,600.238C508.437,600.369 480.334,600.253 458.132,600.403ZM458.197,520.768L417.5,521.036L407.347,510.191C401.572,504.226 394.683,497.483 392.306,495.6L387.856,492.5L389.856,476.5C390.766,467.7 391.718,458.664 391.981,456.326L392.123,452L412.69,452L433.257,452L432.804,463L432.35,474L460.033,474L487.715,474L488.71,467.801C489.066,464.391 489.649,455.197 490.006,447.332L490.311,433L469.155,433L448,433L448.347,427.554C448.347,417.184 450.361,396.803 451.53,396.059C452.166,395.654 460.905,395.37 471.177,395.362C479.646,395.355 484.358,395.309 486.972,395.068C489.586,394.827 490.439,394.131 490.646,393.338C490.81,392.709 490.355,392.597 490.468,392.717C490.581,392.838 490.583,393.136 490.673,394.034C490.965,396.962 492.109,394.813 492.499,390.228C492.89,385.643 493.218,378.591 493.259,371.754L493,357L466.093,357L439.187,357L438.196,366.75C437.841,372.113 437.464,377.366 437.354,378.466C437.259,379.424 437.307,379.616 434.69,379.912C432.074,380.208 427.136,380.295 417.608,380.425L397.721,381.043L398.848,372.272C399.278,367.447 399.901,357.456 400.236,350.031L400.5,336.5L409.194,336.212L417.889,335.924L418.798,331.712C419.107,329.395 419.468,325.056 419.602,322.031L419.5,316.5L463.127,316.239C491.572,316.068 506.257,316.595 507.058,317.268C513.23,322.451 529.869,336 532.043,337.614C535.229,339.978 535.211,342.032 534,378.196L533.691,397.76L528.749,399.938C526.221,401.136 522.673,402.805 520.658,404.011C518.643,405.216 515.28,407.14 513.17,408.294C511.06,409.448 509.153,411.134 509.153,411.669C509.153,412.204 513.108,415.983 517.783,419.736C522.458,423.489 526.687,427.041 527.237,427.682C527.787,428.324 529.236,429.271 530.284,429.665C531.312,430.052 531.601,429.963 531.57,435.916C531.539,441.869 530.965,453.505 529.813,476.753L529.5,490.075L524.653,494.307C522.178,496.635 518.706,499.551 516.781,501.117C514.856,502.683 510.045,507.59 506.028,512.064L498.893,520.5L458.197,520.768ZM628.844,520.76L585.189,521.021L580.226,514.26C577.306,510.542 571.397,503.729 567.324,499.497L559.759,492.109L561.21,466.304C561.817,452.112 562.658,420.256 563.08,395.506C563.338,380.331 563.574,370.107 563.792,364.722C564.01,359.337 563.517,358.815 563.702,363.03L564.595,375.5L564.797,358.185L565,340.87L577.745,328.435L590.491,316L633.129,316L675.767,316L682.787,323.577C686.838,327.745 692.488,333.091 695.068,335.062L699.883,338.322L699.326,414.911L698.768,491.5L691.716,498.5C688.028,502.35 682.29,508.576 678.754,512.701L672.5,520.5L628.844,520.76ZM795.246,520.761L752.262,521.021L747.885,515.261C745.287,512.092 738.953,505.436 734.054,500.853L725,492.833L725,416.452L725,340.072L731.119,334.286C734.293,331.104 739.253,325.952 742.357,322.468L747.83,315.832L790.319,316.166C816.499,316.37 833.956,317.185 834.957,317.796C835.858,318.346 841.288,323.295 846.988,328.774L857.5,338.424L857.873,354.462C858.269,363.283 859.024,383.786 859.55,400.011C860.077,416.236 860.984,440.765 861.568,454.515C862.151,468.265 862.628,482.875 862.629,487L862.977,494.5L850.604,507.5L838.23,520.5L795.246,520.761ZM961.615,520.761L919.73,521.022L905.471,506.28L891.211,491.538L890.935,480.019C889.897,460.845 888.269,434.232 887.291,420.475C886.783,413.325 885.641,392.056 884.755,373.22L882.799,339.005L885.996,335.739C887.564,333.942 892.913,329.085 898.138,324.557L907.5,316.005L949.37,316.002L991.239,316L998.479,323.25C1002.65,327.238 1008.74,333.443 1011.79,336.665L1017.5,342.218L1017.78,354.359C1018.13,361.036 1019.15,375.304 1020.07,386.029C1020.98,396.754 1022.15,410.927 1022.67,417.527C1023.19,424.127 1024.09,434.036 1024.66,439.536C1025.24,445.036 1026.12,455.183 1026.62,462.098C1027.12,469.014 1028.09,478.65 1028.76,483.429L1030.31,492.024L1021.85,499.557C1017.39,503.7 1011.52,509.815 1008.61,513.502L1003.5,520.5L961.615,520.761ZM324.957,292.428L309,293.05L309,281.525L309,270L301.371,270L293.742,270L294.769,262.75C295.144,258.762 296.128,250.37 296.958,244.045C297.789,237.72 298.875,228.484 299.37,223.534C299.865,218.584 301.414,205.092 302.814,193.542C304.215,181.992 306.259,164.212 307.357,154.037C310.109,128.536 312.154,110.834 313.305,102.548C313.84,98.6977 314.296,94.9466 314.314,94.2591C314.326,93.8104 314.626,93.8317 315.966,93.6314C317.306,93.431 319.338,93.3467 322.327,93.3467L330.654,93L332.22,83.6804C332.891,78.5546 333.657,73.5403 333.97,72.3411L334.233,70L372.648,70C402.753,70 410.844,70.3986 411.226,71.3925C411.493,72.0901 411.335,77.3151 410.898,83.2175L410.446,94L417.362,94L424.278,94L423.24,110.25C422.86,119.188 422.124,129.146 421.6,132.446C421.076,135.746 420.207,144.55 419.674,151.975C417.863,177.217 416.67,192.439 415.127,209.97C413.779,225.294 413.144,233.312 410.953,262.699L410.829,269L402.415,269L394,269L393.653,273.441C393.653,275.884 393.368,277.865 392.818,278.205C392.268,278.545 391.653,281.736 391.653,284.937C391.653,289.182 392.117,290.909 388.852,291.863C385.588,292.816 378.947,292.649 365.034,292.468C351.774,292.295 333.734,292.277 324.957,292.428ZM691.408,292.418C677.79,292.541 670.485,292.577 666.504,292.377C662.523,292.176 662.202,291.989 661.962,291.168C661.376,289.159 658.607,260.448 657.549,245.452L656.5,235.5L651.847,235.239C641.42,234.694 642.347,236.85 642.347,213.137C642.347,201.683 642.052,187.497 641.695,181.664L640.702,171.1L636.601,170.8L632.5,170.5L632.887,134.5C632.91,114.7 633.314,92.1201 633.789,84.2715L634.309,69.9596L654.405,70.2298L674.5,70.5L674.127,94.5C674.113,107.7 673.704,130.064 673.218,144.226L672.679,170L675.743,170.015C678.95,170.03 680.535,170.001 681.218,172.835C681.901,175.669 681.681,181.356 681.318,193.148C680.956,204.886 680.372,217.718 680.014,221.726L679.704,229.073L690.102,228.787L700.5,228.5L701.559,202C702.024,184.72 702.108,176.933 702.759,173.328C703.411,169.723 704.304,170.648 707.019,170.346L711.5,169.5L712.44,120.706C712.801,91.0565 713.316,71.774 713.911,71.1793C714.501,70.589 722.35,70.4102 734.07,70.5744L753.5,70.5L753.759,120.25L754.019,170L747.661,170L741.304,170L740.315,180.25C739.739,189.444 739.128,197.482 736.841,225.945L736.5,234.5L732,235L727.5,235.5L726.034,248.5C723.233,281.024 722.434,288.469 721.438,290.337C720.415,292.257 719.512,292.164 691.408,292.418ZM1080.3,292.414L1039.1,293.022L1038.4,289.261C1037.83,287.192 1037.36,283.418 1037.35,280.875C1037.35,278.331 1037.04,274.732 1036.7,273.035L1035.77,270.077L1027.63,269.789L1019.5,269.5L1019.15,265.5C1018.77,263.3 1017.98,256.07 1017.41,249.47C1015.73,230.165 1014.45,217.054 1013.35,207.958C1012.79,203.283 1011.89,193.176 1011.36,185.476C1010.83,177.776 1009.94,168.079 1009.38,163.954C1008.82,159.829 1007.91,151.294 1007.34,144.969C1006.77,138.644 1005.91,129.193 1005.42,123.968C1004.94,118.743 1004.2,109.837 1003.79,104.2L1002.7,94L1010.35,94L1018,94L1017.75,82.25L1017.5,70.5L1054.7,70.2379L1091.9,69.9758L1092.6,73.7379C1093.17,75.807 1093.64,79.2483 1093.65,81.3845C1093.65,83.5207 1094.17,87.0509 1094.79,89.1085C1095.96,93.0323 1099.27,94.3084 1109.51,94.338C1112.64,94.347 1114.65,98.3946 1114.65,104.234C1114.65,105.48 1115.3,110.161 1116.1,114.561C1116.89,118.961 1118.03,126.37 1118.65,131.045C1119.26,135.72 1120.44,144.497 1121.27,150.547C1122.11,156.597 1123.39,166.939 1124.14,173.539C1125.36,184.453 1126.59,193.618 1131.23,226.548C1132.79,237.595 1135.2,255.477 1136.32,264.335L1137.25,269L1128.99,269L1120.72,269L1121.24,280L1121.76,291L1106.63,291.222L1091.5,291.444L1106.15,291.972C1110.9,292.139 1111.2,291.948 1106.72,292.083C1102.24,292.218 1093.33,292.332 1080.3,292.414Z" fill-rule="evenodd" fill="#181C2D"/>
<path d="M556.5,631.855L646.5,631.516L557.847,631.255C508.897,631.112 468.161,630.649 467.749,630.651C467.336,630.652 466.642,630.867 466.505,631.005C466.436,631.074 476.743,631.729 493.01,631.776C509.277,631.822 531.75,631.853 556.5,631.855Z" fill-rule="evenodd" fill="#3A3B42"/>
<path d="M699.5,631.884L717.5,631.575L700.847,631.276C681.084,630.929 681.824,630.686 681.505,631.005C681.436,631.074 683.638,631.732 686.855,631.784C690.073,631.836 694.55,631.874 699.5,631.884Z" fill-rule="evenodd" fill="#3A3B42"/>
<path d="M936.5,631.855L1020.5,631.517L937.847,631.256C892.197,631.112 854.161,630.649 853.749,630.65C853.336,630.652 852.642,630.867 852.505,631.005C852.436,631.074 862.068,631.729 877.247,631.776C892.427,631.823 913.4,631.853 936.5,631.855Z" fill-rule="evenodd" fill="#3A3B42"/>
<path d="M457.5,600.864L498.5,600.535L458.847,600.262C411.9,599.941 416.812,599.698 416.505,600.005C416.436,600.074 421.229,600.73 428.615,600.778C436.001,600.827 446.225,600.859 457.5,600.864Z" fill-rule="evenodd" fill="#3A3B42"/>
<path d="M789,600.859L845.5,600.526L790.347,600.259C759.822,600.112 734.161,599.647 733.748,599.649C733.336,599.651 732.642,599.867 732.505,600.005C732.436,600.074 738.973,600.729 749.169,600.777C759.364,600.825 773.462,600.856 789,600.859Z" fill-rule="evenodd" fill="#3A3B42"/>
<path d="M926.999,600.892L941.5,600.59L928.347,600.282C912.711,599.925 912.829,599.681 912.505,600.005C912.436,600.074 914.243,600.733 916.826,600.786C919.408,600.84 923.012,600.879 926.999,600.892Z" fill-rule="evenodd" fill="#3A3B42"/>
<path d="M480.189,599.757L544.191,600.015L552.881,592.44C562.552,583.66 561.147,583.92 570.814,593.738L577.442,600L636.256,600L695.069,600L704.233,591.5C709.083,586.825 713.343,583.347 714.124,583.347C714.905,583.347 719.194,587.135 723.844,591.81L732.456,600L789,600L845.544,600L854.347,591.5C858.997,586.825 862.926,583.347 863.5,583.347C864.074,583.347 868.194,587.135 872.844,591.81L881.456,600L946.618,600L1011.78,600L1033.99,577.256C1046.01,564.748 1063.64,546.719 1073.39,536.816L1090.97,518.5L1091.33,513C1091.34,507.535 1090.81,502.019 1085.89,456.962C1081.67,418.203 1080.27,406 1078.77,394.495C1077.99,388.467 1077.35,382.55 1077.35,381.29L1077,379L1161.6,379L1246.19,379L1253.68,372.25C1257.61,368.538 1267.7,358.949 1276.23,350.64C1284.76,342.33 1296.34,331.312 1301.97,326.147C1313.38,315.685 1313.08,316.407 1310.77,303.321C1309.91,298.436 1308.55,290.395 1307.76,285.445C1306.96,280.495 1305,269.684 1303.41,261.434C1301.81,253.184 1299.29,239.855 1297.81,231.88L1294.8,217.5L1285.76,207.997C1274.98,197.079 1275.02,198.464 1283.73,187.376C1288.64,181.124 1289.29,177.945 1287.37,169.615C1286.84,167.309 1285.46,160.263 1284.3,153.938C1283.15,147.613 1281.14,137.033 1279.84,130.433C1278.54,123.833 1277.18,115.984 1276.82,112.959C1276.18,107.703 1275.73,106.955 1268.91,100.744C1264.98,97.1687 1256.23,88.9004 1249.55,82.4379L1237.25,71L1183.63,71L1130,71L1129.73,73.75C1129.81,76.7855 1130.49,83.1951 1131.16,88.3061C1131.82,93.4171 1133.17,97.2486 1133.23,95.2691L1133,91L1183.86,91L1234.72,91L1247.01,104.488C1255.99,114.065 1259.65,118.676 1259.65,120.391C1259.65,122.691 1263.08,143.016 1267.74,168.277L1270.21,179.814L1262.76,189.005C1258.85,194.06 1255.65,198.73 1255.65,199.382C1255.65,200.035 1258.27,203.276 1261.34,206.282C1274.99,219.655 1274.73,219.135 1279.16,243.562C1279.96,247.962 1281.29,255.165 1282.13,259.565C1282.96,263.965 1284.74,273.859 1286.08,281.559C1287.42,289.259 1289.02,296.89 1289.6,298.438C1292.45,305.923 1291.57,307.693 1280.52,318.363C1274.9,323.801 1263.35,335.051 1254.76,343.438L1239.3,359L1147.01,359L1054.72,359L1055.06,364.75C1055.64,369.663 1057.74,389.936 1061.69,428.535C1062.2,433.485 1063.31,443.838 1064.16,451.538C1065.01,459.238 1066.37,472.508 1067.18,481.033C1068,489.558 1069.2,499.672 1069.84,503.412L1071.34,510.099L1050.08,531.3C1038.58,542.96 1023.49,558.153 1016.31,565.441L1003.41,579L946.175,579L888.94,579L878.067,568.768C871.896,563.14 866.506,557.949 866.169,557.478C865.43,556.447 863.598,556.486 861.065,558.129C858.532,559.771 854.87,562.906 849.443,567.935L837.99,579L788.853,579L739.716,579L728.22,567.5C721.706,561.175 715.605,555.653 715.086,555.653C714.566,555.653 708.23,560.844 701.179,567.151L688.5,578.935L635.544,578.967L582.589,579L572.499,568.5C566.759,562.725 561.434,557.653 561.09,557.653C560.746,557.653 555.6,562.415 549.845,568.19L539.536,579L481.721,579L423.906,579L412.049,567.308C405.338,560.877 389.81,545.603 377.778,533.747L355.75,512.5L356.757,502.5C357.12,497 358.038,487.366 358.799,481.041C359.56,474.716 360.908,462.561 361.795,454.036C362.681,445.511 363.841,434.714 364.374,430.039C367.902,399.045 370.443,373.453 370.629,367.02L370.5,359.5L266.784,359L163.069,358.5L158.131,353.444C155.225,350.663 143.312,339.157 131.899,328.257L111,308.752L111.347,302.067C111.347,297.737 111.794,294.907 112.745,293.65C113.552,292.583 114.297,290.033 114.315,288.237C114.354,284.185 117.736,262.938 120.286,250.706C124.615,229.937 131.413,193.603 135.843,167.558C137.246,159.308 139.253,148.065 140.304,142.565C141.355,137.065 142.949,128.284 143.845,123.059C144.741,117.834 146.079,110.186 146.818,106.061C147.558,101.936 148.435,96.9237 148.784,94.8612L149.091,91L174.476,91L199.861,91L199.948,93.25C200.067,93.8687 200.883,93.0712 200.986,91.2561C201.09,89.4409 201.173,86.616 201.21,83.2432L201,70.9711L170.262,71.2355L139.524,71.5L138.476,76C138.09,78.475 136.44,86.7278 134.8,94.4278C133.16,102.128 129.061,122.383 125.692,139.433C122.323,156.483 117.722,179.43 115.467,190.43C113.211,201.43 111.043,212.471 110.652,214.946C110.261,217.421 105.535,241.366 100.125,268.248L90.6109,317.255L94.2088,320.781C96.3783,322.72 103.884,330.018 110.759,336.693C117.634,343.369 130.659,355.74 139.588,364.105L155.969,379L251.985,379L348,379L347.622,384.25C347.605,387.137 347.149,392.83 346.604,396.955C346.06,401.08 344.954,410.764 344.147,418.464C343.341,426.164 341.355,444.387 339.734,458.962C338.113,473.537 336.004,493.06 335.042,502.385L333.633,519.409L352.22,537.811C362.633,547.932 381.404,566.264 393.693,578.168L416.187,599.5L480.189,599.757Z" fill-rule="evenodd" fill="#F05827"/>
<path d="M526.499,578.893L540.5,578.593L527.847,578.283C512.8,577.924 512.83,577.68 512.505,578.005C512.436,578.074 514.186,578.733 516.678,578.787C519.171,578.841 522.649,578.88 526.499,578.893Z" fill-rule="evenodd" fill="#3A3B42"/>
<path d="M991.499,578.9L1003.5,578.606L992.847,578.288C980.154,577.921 979.833,577.676 979.505,578.005C979.436,578.074 980.96,578.734 983.089,578.789C985.219,578.844 988.199,578.885 991.499,578.9Z" fill-rule="evenodd" fill="#3A3B42"/>
<path d="M458,520.864L499.5,520.534L459.347,520.262C411.808,519.942 416.812,519.698 416.505,520.005C416.436,520.074 421.285,520.73 428.762,520.778C436.238,520.827 446.587,520.859 458,520.864Z" fill-rule="evenodd" fill="#84817D"/>
<path d="M629,520.863L673.5,520.532L630.347,520.261C606.422,520.112 586.16,519.645 585.748,519.648C585.335,519.651 584.642,519.867 584.505,520.005C584.436,520.074 589.623,520.73 597.643,520.778C605.664,520.826 616.762,520.858 629,520.863Z" fill-rule="evenodd" fill="#84817D"/>
<path d="M795.232,520.188L838.5,519.876L850.809,507.188L863.119,494.5L862.777,470.5C862.314,454.345 861.797,440.547 861.371,432.008C860.945,423.469 859.916,420.173 859.812,424.985L859.998,432.5L841.955,432.377C831.841,432.309 822.835,431.609 822.143,431.181C821.641,430.87 820.834,432.078 820.754,435.29C820.674,438.503 820.792,444.036 821.082,452.888L822.154,475.032L794.327,474.766L766.5,474.5L766.218,457C765.873,447.375 765.535,437.808 765.468,435.768L765,432.082L745.499,431.791L725.998,431.5L725.999,462.651L726,493.802L733.403,500.978C737.666,504.925 743.678,511.231 746.556,514.626L751.963,520.5L795.232,520.188Z" fill-rule="evenodd" fill="#F9CF47"/>
<path d="M809.5,520.871L838.5,520.548L810.847,520.267C778.09,519.937 780.816,519.694 780.505,520.005C780.436,520.074 783.878,520.731 789.089,520.78C794.3,520.83 801.525,520.864 809.5,520.871Z" fill-rule="evenodd" fill="#84817D"/>
<path d="M961.386,520.191L1003.5,519.882L1007.27,515.691C1009.15,513.386 1014.98,507.379 1020.46,501.962L1030.28,491.803L1029.42,483.225C1028.76,478.507 1027.81,468.963 1027.3,462.048C1026.05,445.016 1025.31,436.864 1024.76,434.181C1024.53,433.063 1024.09,432.226 1021.74,431.945C1019.39,431.663 1014.79,431.661 1005.73,431.669C995.704,431.677 986.662,432.15 985.865,432.655C984.61,433.449 984.425,436.496 985.522,453.441C986.219,464.196 986.558,473.247 986.213,473.804C985.498,474.962 963.25,474.989 943.883,474.001L931.248,473.704L930.96,466.602C930.611,462.696 929.904,453.177 929.39,445.477C929.133,441.627 928.893,438.126 928.714,435.588C928.535,433.051 928.07,431.153 928.056,431.153C928.026,431.153 919.258,431.284 908.573,431.444L889.15,432.081L889.058,429.79C888.631,427.561 887.763,430.011 887.814,434.685C887.866,439.36 888.143,446.283 888.619,452.968C889.15,460.424 889.865,472.164 890.207,479.046L891.174,491.522L905.223,506.011L919.271,520.5L961.386,520.191Z" fill-rule="evenodd" fill="#F9CF47"/>
<path d="M968.5,520.866L1004.5,520.539L969.847,520.263C928.813,519.94 932.813,519.696 932.505,520.005C932.436,520.074 936.666,520.73 943.146,520.779C949.626,520.828 958.6,520.861 968.5,520.866Z" fill-rule="evenodd" fill="#84817D"/>
<path d="M457.769,519.75L499.5,520.001L507.308,511.5C511.412,506.825 514.698,503.347 515.033,503.347C515.368,503.347 518.969,500.275 522.852,496.563L529.763,489.5L530.728,472.59C531.068,463.29 531.929,433.243 531.929,433.243L510.651,432L490.301,432L489.198,448.25C488.782,457.188 488.163,466.663 487.809,469.413L487.5,474.5L479.653,474.831C475.528,475.013 463.474,474.507 452.435,474.131L432.359,473.793L432.808,462.896L433.257,452L412.69,452L392.123,452L391.296,456.25C391.033,458.587 390.08,467.63 389.17,476.43L387.856,492.5L391.831,495.925C394.208,497.808 400.737,504.191 406.11,509.733L416.039,519.5L457.769,519.75Z" fill-rule="evenodd" fill="#F9CF47"/>
<path d="M628.435,519.76L672.841,520.02L682.162,509.76C687.098,504.117 692.562,498.262 694.544,496.367L698,492.608L698,462.381L698,432.155L678.638,432.043L659.277,431.932L658.195,452.216C657.791,463.372 657.304,472.655 657.05,473.068C656.795,473.48 644.613,473.653 629.617,473.653L602.353,474L602.919,446.75C602.979,439.256 602.961,433.161 602.884,429.389C602.807,425.616 601.983,424.099 601.806,425.869L601.5,432.375L595.847,432.262C592.547,432.201 583.571,431.769 576.322,431.728C569.883,431.692 566.643,431.665 564.915,431.368C563.187,431.07 563.312,430.798 563.149,429.699C563.057,429.08 562.138,432.195 561.841,437.661C561.543,443.126 561.18,450.965 560.82,459.875L559.858,492.307L566.012,498.903C569.588,502.532 575.189,508.944 578.26,512.794L584.028,519.5L628.435,519.76Z" fill-rule="evenodd" fill="#F9CF47"/>
<path d="M726.096,443.502C726.252,416.552 726.253,381.896 726.097,366.496C726.019,358.796 725.255,360.46 725.203,369.342C725.152,378.223 725.119,394.325 725.119,415.5C725.118,436.675 725.15,450.416 725.201,455.491C725.253,460.566 726.017,456.977 726.096,443.502Z" fill-rule="evenodd" fill="#84817D"/>
<path d="M699.094,467.505C699.266,454.305 699.267,437.192 699.096,429.492C699.011,425.642 698.24,426.42 698.183,430.77C698.126,435.12 698.091,443.05 698.09,453.5C698.089,463.95 698.124,470.758 698.181,473.295C698.237,475.833 699.008,474.105 699.094,467.505Z" fill-rule="evenodd" fill="#3A3B42"/>
<path d="M469.5,474.884L487.5,474.575L470.847,474.276C451.084,473.929 451.824,473.686 451.505,474.005C451.436,474.074 453.638,474.732 456.855,474.784C460.073,474.836 464.55,474.874 469.5,474.884Z" fill-rule="evenodd" fill="#84817D"/>
<path d="M794.5,474.872L822.5,474.55L795.847,474.267C764.272,473.936 766.816,473.693 766.505,474.005C766.436,474.074 769.765,474.731 774.795,474.781C779.825,474.83 786.8,474.865 794.5,474.872Z" fill-rule="evenodd" fill="#84817D"/>
<path d="M967,474.881L986.5,474.569L968.347,474.274C946.813,473.93 947.822,473.687 947.505,474.005C947.436,474.074 949.807,474.732 953.296,474.783C956.785,474.835 961.637,474.872 967,474.881Z" fill-rule="evenodd" fill="#84817D"/>
<path d="M629.738,472.927C644.648,472.819 656.776,473.133 657.189,473.207C657.395,473.244 657.99,466.398 658.126,455.882C658.262,445.366 658.347,430.838 658.347,414.846L658,356.691L644.903,357.342C637.891,357.699 626.537,357.647 619.25,357.649L606,358L605.653,367.679C605.653,373.002 605.229,378.635 604.691,380.324C604.153,382.013 603.3,403.651 602.816,428.297L602.282,473.122L629.738,472.927Z" fill-rule="evenodd" fill="#181C2D"/>
<path d="M629.403,473.764C636.897,473.838 644.063,474.165 649.002,474.075C653.941,473.985 657.347,473.477 657.347,473.266C657.347,473.056 653.939,472.573 649,472.525C644.061,472.476 637.241,472.515 629.747,472.652L602.5,473.497L629.403,473.764Z" fill-rule="evenodd" fill="#3A3B42"/>
<path d="M767.094,454.006C767.272,443.281 767.272,429.315 767.096,422.99C767.007,419.828 766.233,420.444 766.175,423.979C766.116,427.513 766.079,433.975 766.079,442.5C766.078,451.025 766.114,456.591 766.172,458.675C766.231,460.76 767.005,459.368 767.094,454.006Z" fill-rule="evenodd" fill="#3A3B42"/>
<path d="M794.674,473.766L822.081,474.032L821.811,450.266C821.472,437.195 820.77,425.461 820.287,424.361C819.804,423.261 819.301,408.547 819.133,391.497C818.965,374.447 818.414,359.751 817.974,359.063C817.368,358.117 810.68,357.653 791.338,357.653L765.794,358L766.531,415.75L767.268,473.5L794.674,473.766Z" fill-rule="evenodd" fill="#181C2D"/>
<path d="M959.248,473.766L987.241,474.032L986.919,463.266C986.551,457.345 985.836,449.083 985.332,444.958C984.828,440.833 983.928,431.397 983.33,423.972C982.732,416.547 981.612,403.27 980.841,394.47C980.071,385.67 979.144,373.844 978.784,368.206L977.784,358L951.235,358L924.685,358L925.032,383.25C925.413,397.137 926.181,413.929 926.735,420.529C927.29,427.129 928.167,438.599 928.685,446.024C929.203,453.449 929.92,462.712 930.272,466.562L931.254,473.5L959.248,473.766Z" fill-rule="evenodd" fill="#181C2D"/>
<path d="M659.094,431.005C659.268,418.63 659.269,402.642 659.096,395.492C659.009,391.917 658.237,392.664 658.18,396.742C658.123,400.82 658.087,408.237 658.086,418C658.086,427.762 658.121,434.115 658.178,436.471C658.235,438.827 659.007,437.192 659.094,431.005Z" fill-rule="evenodd" fill="#84817D"/>
<path d="M528.772,428.956C527.821,428.595 526.738,427.873 526.195,427.231C525.651,426.59 521.382,422.949 516.764,419.196C512.145,415.442 508.494,412.204 508.494,411.669C508.494,411.134 510.021,410.056 512.106,408.902C514.19,407.748 517.536,405.811 519.527,404.606C521.518,403.4 525.093,401.474 527.59,400.276L532.051,397.76L533.04,378.219C533.396,367.472 533.681,354.362 533.673,349.088L533.317,339.5L522.792,330.5C504.635,315.463 508.721,316.653 483.554,316.656C471.545,316.657 452.044,316.954 440.226,317.315L418.744,318.319L418.401,324.034C418.401,327.178 418.151,331.011 417.815,332.709L417.523,335.926L408.995,336.213L400.467,336.5L399.532,350C399.206,357.425 398.598,367.148 398.175,371.686L397.742,380L417.628,380L437.514,380L437.857,375.651C437.857,373.259 438.14,367.917 438.491,363.709L438.792,356L465.449,356L492.106,356L491.323,375.484C491.08,386.2 490.745,394.962 490.456,395.255C490.166,395.548 481.039,395.974 469.883,396.325L449.606,397.31L448.682,402.405C448.363,405.207 447.801,412.974 447.43,419.712L447.097,432L488.245,432L529.392,432C529.392,432 530.283,429.53 528.772,428.956Z" fill-rule="evenodd" fill="#FDF6DD"/>
<path d="M766.093,425.506C766.273,415.606 766.274,402.54 766.096,396.49C766.007,393.465 765.232,393.981 765.173,397.244C765.113,400.506 765.076,406.525 765.075,414.5C765.074,422.475 765.11,427.71 765.169,429.704C765.228,431.698 766.003,430.456 766.093,425.506Z" fill-rule="evenodd" fill="#84817D"/>
<path d="M985.678,430.897C986.313,430.493 995.758,432.37 1005.85,432.362L1024.2,432L1023.96,425.25C1023.64,421.538 1022.69,409.249 1021.84,397.974C1021,386.699 1019.87,373.605 1019.33,368.893C1018.79,364.18 1018.35,356.392 1018.35,351.536L1018,342.707L1013.6,337.61C1010.98,334.806 1004.95,328.709 1000.43,324.443L992.068,317L949.208,317L906.348,317L897.078,324.737C892.169,328.993 887.045,333.643 885.477,335.439L882.799,339.005L884.09,373.252C885.797,408.934 886.976,424.752 888.202,429.412L889.233,432L908.058,432C918.411,432 927.375,431.834 927.61,431.421C927.845,431.009 927.721,425.749 927.281,419.974C926.842,414.199 926.155,397.444 925.756,382.731L924.684,356L935.245,356.003C941.245,356.005 953.531,356.645 962.134,357.002L977.782,357.304L978.089,367.902C978.725,378.217 985.042,431.302 985.678,430.897Z" fill-rule="evenodd" fill="#FDF6DD"/>
<path d="M469,432.878L490.5,432.563L470.347,432.272C446.452,431.932 447.821,431.689 447.505,432.005C447.436,432.074 450.033,432.731 453.884,432.783C457.736,432.834 463.087,432.87 469,432.878Z" fill-rule="evenodd" fill="#84817D"/>
<path d="M595.497,432.609L601.5,432.374L602.663,425.437C603.112,421.622 603.895,409.967 604.404,399.517C604.912,389.067 605.584,375.246 605.897,368.783L606.121,357L632.561,357L659,357L659,394.458L659,431.916L677.75,432.208C688.254,432.369 697.623,432.445 697.778,432.17C698.225,431.379 698.671,407.461 698.851,383.909C699.031,360.357 698.642,336.653 698.202,336.653C697.649,336.653 692.896,332.456 687.458,327.286L677.422,318.197L633.461,317.531L589.5,316.864L577.411,328.682L565.323,340.5L564.32,365.5C563.959,379.25 563.366,399.815 563.001,411.228L562.682,432L575.745,432.075C583.119,432.116 592.197,432.547 595.497,432.609Z" fill-rule="evenodd" fill="#FDF6DD"/>
<path d="M841.512,432.724L859.998,432.5L860.359,428.5C860.41,415.151 857.919,339.143 857.412,338.296C857.074,337.732 852.048,332.702 846.423,327.283L836.045,317.742L791.036,317.562L746.027,317.382L738.512,325.733C734.569,330.326 730.271,334.845 728.7,336.166L725.98,338.888L726.24,385.194L726.5,431.5L745.738,431.772L764.976,432.043L765.238,394.272L765.5,356.5L781.847,356.186C790.647,356.013 802.063,356.512 807.655,356.873L817.831,357.181L818.077,363.34C818.402,366.728 819.003,383.119 819.411,399.754C819.959,422.088 820.6,430.546 821.533,431.382C822.367,432.127 829.335,432.643 841.512,432.724Z" fill-rule="evenodd" fill="#FDF6DD"/>
<path d="M563.087,419.847C563.297,415.629 563.294,410.181 563.081,407.799C562.975,406.609 562.187,406.89 562.118,408.28C562.049,409.67 562.006,412.2 562.007,415.5C562.009,419.417 562.044,421.782 562.11,422.511C562.175,423.24 562.962,422.351 563.087,419.847Z" fill-rule="evenodd" fill="#84817D"/>
<path d="M820.093,407.477C820.277,398.66 820.278,387.166 820.094,381.958C820.003,379.353 819.226,379.86 819.166,382.765C819.105,385.671 819.067,390.987 819.067,398C819.066,405.205 819.102,409.849 819.162,411.547C819.222,413.246 819.998,412.006 820.093,407.477Z" fill-rule="evenodd" fill="#84817D"/>
<path d="M699.091,404.388C699.287,398.27 699.287,390.365 699.09,386.857C698.991,385.104 698.209,385.487 698.144,387.503C698.079,389.519 698.039,393.188 698.039,398C698.039,403.398 698.074,406.727 698.136,407.83C698.198,408.932 698.98,407.819 699.091,404.388Z" fill-rule="evenodd" fill="#84817D"/>
<path d="M1159.5,410.886L1176.5,410.578L1160.85,410.277C1142.26,409.928 1142.83,409.684 1142.5,410.005C1142.44,410.074 1144.53,410.732 1147.56,410.785C1150.6,410.837 1154.82,410.875 1159.5,410.886Z" fill-rule="evenodd" fill="#3A3B42"/>
<path d="M1215,410.867L1250.5,410.54L1216.35,410.264C1175.9,409.94 1179.81,409.696 1179.5,410.005C1179.44,410.074 1183.61,410.73 1190,410.779C1196.39,410.828 1205.24,410.861 1215,410.867Z" fill-rule="evenodd" fill="#3A3B42"/>
<path d="M860.09,394.917C860.288,389.09 860.288,381.409 860.091,377.886C859.992,376.125 859.209,376.443 859.144,378.364C859.079,380.284 859.038,383.825 859.038,388.5C859.037,393.561 859.074,396.759 859.137,397.884C859.2,399.008 859.983,398.071 860.09,394.917Z" fill-rule="evenodd" fill="#84817D"/>
<path d="M564.087,394.905C564.293,390.169 564.293,383.831 564.088,380.866C563.986,379.384 563.2,379.62 563.133,381.181C563.065,382.741 563.023,385.65 563.022,389.5C563.022,393.678 563.06,396.334 563.125,397.279C563.191,398.225 563.976,397.474 564.087,394.905Z" fill-rule="evenodd" fill="#84817D"/>
<path d="M463.999,396.892L478.5,396.59L465.347,396.282C449.711,395.925 449.829,395.681 449.505,396.005C449.436,396.074 451.243,396.733 453.826,396.786C456.408,396.84 460.012,396.879 463.999,396.892Z" fill-rule="evenodd" fill="#F9CF47"/>
<path d="M471.25,395.749L491,396.042L491.231,393.771C491.187,392.924 491.016,392.211 490.926,392.13C490.836,392.048 490.146,392.51 489.975,393.162C489.769,393.952 489.489,394.138 486.795,394.409C484.102,394.68 479.33,394.778 470.675,394.881L451.5,395.455L471.25,395.749Z" fill-rule="evenodd" fill="#3A3B42"/>
<path d="M765.748,371.718L766.095,357.936L791.701,358.218C798.839,358.295 805.68,358.628 810.384,358.543C815.088,358.459 818.348,357.956 818.347,357.75C818.347,357.543 815.029,357.01 810.226,356.874C805.422,356.738 798.788,356.653 791.5,356.653L765,357L765.2,371.25L765.4,385.5L765.748,371.718Z" fill-rule="evenodd" fill="#3A3B42"/>
<path d="M659.087,374.375C659.295,369.897 659.294,364.004 659.085,361.332C658.981,359.995 658.194,360.254 658.126,361.73C658.058,363.206 658.015,365.925 658.015,369.5C658.016,373.554 658.053,376.064 658.118,376.9C658.183,377.736 658.969,376.913 659.087,374.375Z" fill-rule="evenodd" fill="#3A3B42"/>
<path d="M417.5,380.881L437.5,380.568L418.847,380.274C396.723,379.931 397.822,379.688 397.505,380.005C397.436,380.074 399.864,380.732 403.443,380.783C407.023,380.835 412,380.871 417.5,380.881Z" fill-rule="evenodd" fill="#84817D"/>
<path d="M700.092,366.931C700.282,359.463 700.282,349.764 700.093,345.407C699.998,343.228 699.219,343.673 699.157,346.134C699.094,348.595 699.055,353.087 699.055,359C699.054,365.331 699.09,369.325 699.151,370.723C699.211,372.12 699.99,370.929 700.092,366.931Z" fill-rule="evenodd" fill="#84817D"/>
<path d="M564.086,367.897C564.295,363.706 564.295,358.037 564.086,355.353C563.982,354.011 563.195,354.207 563.126,355.588C563.057,356.969 563.013,359.562 563.013,363C563.013,366.722 563.052,369.104 563.119,369.96C563.185,370.817 563.972,370.166 564.086,367.897Z" fill-rule="evenodd" fill="#3A3B42"/>
<path d="M370.093,359.916C370.275,360.098 370.896,360.163 371.016,360.072C371.136,359.98 371.347,359.487 371.347,359.167C371.347,358.725 364.696,358.102 348.573,357.959C332.451,357.815 306.51,357.806 267.25,357.899L163.5,358.491L266.241,358.75C322.94,358.892 369.729,359.552 370.093,359.916Z" fill-rule="evenodd" fill="#3A3B42"/>
<path d="M1147.5,358.855L1239.5,358.516L1148.85,358.255C1098.8,358.112 1057.16,357.649 1056.75,357.651C1056.34,357.652 1055.64,357.867 1055.5,358.005C1055.44,358.074 1065.97,358.729 1082.6,358.776C1099.23,358.822 1122.2,358.852 1147.5,358.855Z" fill-rule="evenodd" fill="#3A3B42"/>
<path d="M623.5,357.884L641.5,357.575L624.847,357.276C605.084,356.929 605.824,356.686 605.505,357.005C605.436,357.074 607.638,357.732 610.855,357.784C614.073,357.836 618.55,357.874 623.5,357.884Z" fill-rule="evenodd" fill="#3A3B42"/>
<path d="M951.5,357.872L978.5,357.551L952.847,357.268C922.454,356.936 924.817,356.693 924.505,357.005C924.436,357.074 927.653,357.731 932.501,357.781C937.35,357.831 944.075,357.865 951.5,357.872Z" fill-rule="evenodd" fill="#3A3B42"/>
<path d="M466,356.872L493.5,356.551L467.347,356.267C436.363,355.936 438.817,355.693 438.505,356.005C438.436,356.074 441.709,356.731 446.648,356.781C451.587,356.831 458.437,356.865 466,356.872Z" fill-rule="evenodd" fill="#84817D"/>
<path d="M787,356.878L808.5,356.563L788.347,356.272C764.452,355.932 765.821,355.689 765.505,356.005C765.436,356.074 768.033,356.731 771.884,356.783C775.736,356.834 781.087,356.87 787,356.878Z" fill-rule="evenodd" fill="#84817D"/>
<path d="M941,356.887L957.5,356.581L942.347,356.278C924.353,355.927 924.826,355.684 924.505,356.005C924.436,356.074 926.469,356.732 929.414,356.785C932.359,356.838 936.462,356.876 941,356.887Z" fill-rule="evenodd" fill="#84817D"/>
<path d="M433.499,317.89L448.5,317.588L434.847,317.281C418.622,316.925 418.828,316.682 418.505,317.005C418.436,317.074 420.299,317.733 422.973,317.786C425.646,317.839 429.374,317.878 433.499,317.89Z" fill-rule="evenodd" fill="#84817D"/>
<path d="M657.5,317.879L678.5,317.565L658.847,317.272C635.542,316.932 636.821,316.689 636.505,317.005C636.436,317.074 638.977,317.732 642.737,317.783C646.498,317.834 651.725,317.87 657.5,317.879Z" fill-rule="evenodd" fill="#84817D"/>
<path d="M781.999,317.898L794.5,317.603L783.347,317.287C770.066,316.921 769.832,316.677 769.505,317.005C769.436,317.074 771.016,317.734 773.237,317.788C775.457,317.843 778.562,317.884 781.999,317.898Z" fill-rule="evenodd" fill="#F9CF47"/>
<path d="M806.999,317.895L820.5,317.596L808.347,317.284C793.889,316.923 793.83,316.679 793.505,317.005C793.436,317.074 795.13,317.733 797.531,317.787C799.933,317.841 803.287,317.881 806.999,317.895Z" fill-rule="evenodd" fill="#84817D"/>
<path d="M434.499,316.89L449.5,316.588L435.847,316.281C419.622,315.925 419.828,315.682 419.505,316.005C419.436,316.074 421.299,316.733 423.973,316.786C426.646,316.839 430.374,316.878 434.499,316.89Z" fill-rule="evenodd" fill="#3A3B42"/>
<path d="M478,316.87L507.5,316.547L479.347,316.266C445.999,315.937 448.816,315.694 448.505,316.005C448.436,316.074 451.934,316.731 457.236,316.78C462.537,316.83 469.887,316.864 478,316.87Z" fill-rule="evenodd" fill="#84817D"/>
<path d="M632.5,316.863L676.5,316.533L633.847,316.261C610.197,316.112 590.16,315.645 589.748,315.648C589.335,315.651 588.642,315.867 588.505,316.005C588.436,316.074 593.567,316.73 601.496,316.778C609.426,316.826 620.4,316.858 632.5,316.863Z" fill-rule="evenodd" fill="#3A3B42"/>
<path d="M770.5,316.877L793.5,316.56L771.847,316.271C746.18,315.933 747.82,315.69 747.505,316.005C747.436,316.074 750.202,316.731 754.325,316.782C758.449,316.833 764.175,316.868 770.5,316.877Z" fill-rule="evenodd" fill="#84817D"/>
<path d="M809.5,316.886L826.5,316.578L810.847,316.277C792.263,315.928 792.825,315.685 792.505,316.005C792.436,316.074 794.525,316.732 797.561,316.785C800.597,316.837 804.825,316.875 809.5,316.886Z" fill-rule="evenodd" fill="#3A3B42"/>
<path d="M932.5,316.873L958.5,316.553L933.847,316.268C904.636,315.935 906.818,315.692 906.505,316.005C906.436,316.074 909.54,316.731 914.207,316.781C918.874,316.831 925.35,316.866 932.5,316.873Z" fill-rule="evenodd" fill="#3A3B42"/>
<path d="M975,316.885L992.5,316.576L976.347,316.277C957.174,315.928 957.825,315.685 957.505,316.005C957.436,316.074 959.582,316.732 962.708,316.784C965.835,316.837 970.187,316.874 975,316.885Z" fill-rule="evenodd" fill="#84817D"/>
<path d="M126.999,292.892L141.5,292.59L128.347,292.282C112.711,291.925 112.829,291.681 112.505,292.005C112.436,292.074 114.243,292.733 116.826,292.786C119.408,292.84 123.012,292.879 126.999,292.892Z" fill-rule="evenodd" fill="#3A3B42"/>
<path d="M325,292.887L341.5,292.581L326.347,292.278C308.353,291.927 308.826,291.684 308.505,292.005C308.436,292.074 310.469,292.732 313.414,292.785C316.359,292.838 320.462,292.876 325,292.887Z" fill-rule="evenodd" fill="#3A3B42"/>
<path d="M366.5,292.875L390.5,292.557L367.847,292.27C340.999,291.934 342.819,291.691 342.505,292.005C342.436,292.074 345.315,292.731 349.619,292.782C353.924,292.832 359.9,292.867 366.5,292.875Z" fill-rule="evenodd" fill="#3A3B42"/>
<path d="M486.999,292.892L501.5,292.59L488.347,292.282C472.711,291.925 472.829,291.681 472.505,292.005C472.436,292.074 474.243,292.733 476.826,292.786C479.408,292.84 483.012,292.879 486.999,292.892Z" fill-rule="evenodd" fill="#3A3B42"/>
<path d="M584.5,292.881L604.5,292.568L585.847,292.274C563.723,291.931 564.822,291.688 564.505,292.005C564.436,292.074 566.864,292.732 570.443,292.783C574.023,292.835 579,292.871 584.5,292.881Z" fill-rule="evenodd" fill="#3A3B42"/>
<path d="M691.5,292.87L721.5,292.547L692.847,292.266C658.908,291.937 661.816,291.694 661.505,292.005C661.436,292.074 664.991,292.731 670.383,292.78C675.775,292.83 683.25,292.864 691.5,292.87Z" fill-rule="evenodd" fill="#3A3B42"/>
<path d="M784.5,292.879L805.5,292.565L785.847,292.272C762.542,291.932 763.821,291.689 763.505,292.005C763.436,292.074 765.977,292.732 769.737,292.783C773.498,292.834 778.725,292.87 784.5,292.879Z" fill-rule="evenodd" fill="#3A3B42"/>
<path d="M868.5,292.881L888.5,292.568L869.847,292.274C847.723,291.931 848.822,291.688 848.505,292.005C848.436,292.074 850.864,292.732 854.443,292.783C858.023,292.835 863,292.871 868.5,292.881Z" fill-rule="evenodd" fill="#3A3B42"/>
<path d="M944,292.885L961.5,292.576L945.347,292.277C926.174,291.928 926.825,291.685 926.505,292.005C926.436,292.074 928.582,292.732 931.708,292.784C934.835,292.837 939.187,292.874 944,292.885Z" fill-rule="evenodd" fill="#3A3B42"/>
<path d="M1080,292.864L1121.5,292.534L1081.35,292.262C1033.81,291.942 1038.81,291.698 1038.5,292.005C1038.44,292.074 1043.29,292.73 1050.76,292.778C1058.24,292.827 1068.59,292.859 1080,292.864Z" fill-rule="evenodd" fill="#3A3B42"/>
<path d="M1259.5,292.896L1272.5,292.599L1260.85,292.285C1246.98,291.922 1246.83,291.678 1246.5,292.005C1246.44,292.074 1248.07,292.733 1250.38,292.788C1252.69,292.842 1255.92,292.883 1259.5,292.896Z" fill-rule="evenodd" fill="#3A3B42"/>
<path d="M134.5,291.879L155.5,291.565L135.847,291.272C112.542,290.932 113.821,290.689 113.505,291.005C113.436,291.074 115.977,291.732 119.737,291.783C123.498,291.834 128.725,291.87 134.5,291.879Z" fill-rule="evenodd" fill="#84817D"/>
<path d="M249,291.88L269.5,291.566L250.347,291.273C227.633,290.931 228.822,290.688 228.505,291.005C228.436,291.074 230.92,291.732 234.59,291.783C238.261,291.834 243.362,291.871 249,291.88Z" fill-rule="evenodd" fill="#84817D"/>
<path d="M350,291.864L391.5,291.534L351.347,291.262C303.808,290.942 308.812,290.698 308.505,291.005C308.436,291.074 313.285,291.73 320.762,291.778C328.238,291.827 338.587,291.859 350,291.864Z" fill-rule="evenodd" fill="#84817D"/>
<path d="M481.5,291.878L503.5,291.562L482.847,291.271C458.361,290.933 459.82,290.689 459.505,291.005C459.436,291.074 462.089,291.731 466.031,291.782C469.974,291.833 475.45,291.869 481.5,291.878Z" fill-rule="evenodd" fill="#84817D"/>
<path d="M584.5,291.879L605.5,291.565L585.847,291.272C562.542,290.932 563.821,290.689 563.505,291.005C563.436,291.074 565.977,291.732 569.737,291.783C573.498,291.834 578.725,291.87 584.5,291.879Z" fill-rule="evenodd" fill="#84817D"/>
<path d="M691.5,291.87L721.5,291.547L692.847,291.266C658.908,290.937 661.816,290.694 661.505,291.005C661.436,291.074 664.991,291.731 670.383,291.78C675.775,291.83 683.25,291.864 691.5,291.87Z" fill-rule="evenodd" fill="#84817D"/>
<path d="M785,291.878L806.5,291.563L786.347,291.272C762.452,290.932 763.821,290.689 763.505,291.005C763.436,291.074 766.033,291.731 769.884,291.783C773.736,291.834 779.087,291.87 785,291.878Z" fill-rule="evenodd" fill="#84817D"/>
<path d="M868,291.88L888.5,291.566L869.347,291.273C846.633,290.931 847.822,290.688 847.505,291.005C847.436,291.074 849.92,291.732 853.59,291.783C857.261,291.834 862.362,291.871 868,291.88Z" fill-rule="evenodd" fill="#84817D"/>
<path d="M947.5,291.878L969.5,291.562L948.847,291.271C924.361,290.933 925.82,290.689 925.505,291.005C925.436,291.074 928.089,291.731 932.031,291.782C935.974,291.833 941.45,291.869 947.5,291.878Z" fill-rule="evenodd" fill="#84817D"/>
<path d="M1065.5,291.872L1092.5,291.551L1066.85,291.268C1036.45,290.936 1038.82,290.693 1038.5,291.005C1038.44,291.074 1041.65,291.731 1046.5,291.781C1051.35,291.831 1058.07,291.865 1065.5,291.872Z" fill-rule="evenodd" fill="#84817D"/>
<path d="M1183,291.878L1204.5,291.563L1184.35,291.272C1160.45,290.932 1161.82,290.689 1161.5,291.005C1161.44,291.074 1164.03,291.731 1167.88,291.783C1171.74,291.834 1177.09,291.87 1183,291.878Z" fill-rule="evenodd" fill="#84817D"/>
<path d="M1267.5,291.879L1288.5,291.565L1268.85,291.272C1245.54,290.932 1246.82,290.689 1246.5,291.005C1246.44,291.074 1248.98,291.732 1252.74,291.783C1256.5,291.834 1261.72,291.87 1267.5,291.879Z" fill-rule="evenodd" fill="#84817D"/>
<path d="M134.339,290.77L154.679,291.04L156.621,281.77C158.339,271.794 160.329,259.059 162.896,241.55C163.783,235.5 165.128,227.188 165.887,223.063C166.646,218.938 167.575,212.497 167.946,208.785C168.132,206.928 168.39,205.283 168.669,204.06C168.948,202.836 168.901,202.347 169.138,202.347C169.375,202.347 169.942,201.471 170.114,200.52C170.286,199.568 170.41,198.2 170.434,196.756C170.571,188.53 171.494,182.027 172.83,181.585C173.287,181.434 173.156,181.913 173.391,184.013C173.626,186.114 173.771,189.52 173.875,194.69L174.5,208.5L180.399,208.804L186.298,209.109L185.616,223.554L184.933,238L199.86,238C212.552,238 215.201,237.887 215.717,236.541C216.332,234.938 218.143,219.879 218.597,212.543L218.5,208.5L226.25,208.208L234,207.916L234.347,204.458C234.347,203.507 234.437,202.73 234.602,202.104C234.766,201.477 234.657,201.347 234.907,201.347C235.156,201.347 235.805,199.989 236.098,198.268C236.391,196.546 236.675,194.138 236.871,191.526C237.185,187.336 237.408,185.026 237.77,183.699C238.132,182.371 238.289,182.347 239.119,182.347C240.327,182.347 240.61,184.106 240.66,188.219C240.71,192.332 240.184,198.406 239.074,206.453C236.762,223.206 234.682,239.538 233.66,248.963C233.153,253.638 232.279,260.142 231.716,263.442C230.624,269.835 228.653,286.502 228.653,289.338C228.653,290.117 229.418,290.882 232.233,291.077C235.048,291.271 240.262,291.241 249.752,291.117L270.5,290.5L272.01,280.5C272.649,275 273.875,264.918 274.736,258.043C275.598,251.168 276.778,241.49 277.358,236.54C277.938,231.59 278.826,225.545 279.338,223.07C279.849,220.595 280.76,213.395 281.354,207.115C281.948,200.835 282.592,195.511 282.846,195.1C283.1,194.689 284.071,187.758 284.944,179.874C285.818,171.989 287.174,160.141 287.959,153.541C288.743,146.941 290.023,135.688 290.802,128.538C291.582,121.388 292.681,112.4 293.247,108.55C293.814,104.7 294.296,99.1345 294.314,96.238L294,90.9673L267.25,91.2337L240.5,91.5L239.039,101.126C237.659,113.051 238.039,112.653 231.569,112.653L226.256,113L225.218,117.25C224.839,119.587 224.131,126.314 223.644,132.233C223.157,138.152 222.534,143.285 222.198,143.829C221.862,144.373 218.126,144.653 213.535,144.653L205.188,145L205.743,129L206.299,113L203.649,113C202.329,113 201.995,112.884 201.663,111.896C201.331,110.909 201.347,109.051 201.347,105.125C201.347,100.794 201.041,95.715 200.697,93.9963L199.75,91L174.42,91L149.091,91L148.109,94.75C147.76,96.8125 146.875,101.814 146.136,105.939C145.397,110.064 144.058,117.716 143.162,122.941C142.266,128.166 140.674,136.935 139.623,142.435C138.572,147.935 136.563,159.192 135.16,167.442C130.73,193.487 123.936,229.796 119.607,250.565C117.145,262.378 113.654,284.18 113.653,287.733L113.999,290.5L134.339,290.77Z" fill-rule="evenodd" fill="#FDF6DD"/>
<path d="M350.5,290.761L392,291.022L392.347,285.07C392.347,281.796 392.632,279.135 393.182,278.795C393.732,278.455 394.347,275.884 394.347,273.441L394,269L402.415,269L410.829,269L411.642,262.75C413.834,233.363 414.469,225.355 415.818,210.03C417.361,192.5 418.555,177.266 420.366,152.025C420.899,144.6 421.76,135.854 422.285,132.554C422.809,129.254 423.552,119.217 423.932,110.279L424.278,94L417.246,94C411.918,94 410.398,93.5123 409.962,92.3758C409.612,91.464 389.631,90.6618 370.059,90.5374C350.487,90.4129 330.653,91.0905 330.653,92C330.653,92.2941 330.084,92.1998 328.584,92.3763C327.084,92.5528 325,92.6533 322.5,92.6533C319.442,92.6533 317.265,92.7446 315.899,92.9447C314.533,93.1448 313.633,93.7912 313.621,94.2409C313.603,94.9284 313.154,98.6023 312.619,102.452C311.468,110.738 309.42,128.461 306.668,153.963C305.57,164.138 303.526,181.908 302.126,193.458C300.726,205.008 299.175,218.516 298.68,223.466C298.185,228.416 297.102,237.63 296.271,243.955C295.44,250.28 294.457,258.698 294.082,262.686L293.742,270L301.371,270L309,270L309,280.25L309,290.5L350.5,290.761ZM355.143,245.774L337.786,246.048L338.64,238.274C339.453,225.833 342.163,196.144 344.413,175.037C345.555,164.312 346.921,149.901 347.447,143.026C347.972,136.151 348.719,127.881 349.116,124.581L349.501,118.5L366.352,118.225L383.204,117.951L382.231,130.725C381.886,137.751 380.947,149.085 380.142,155.96C378.213,172.422 374.677,210.523 373.275,229.95L372.5,245.5L355.143,245.774Z" fill-rule="evenodd" fill="#FDF6DD"/>
<path d="M481.302,290.77C493.566,290.923 499.852,291.428 502.616,290.508C505.381,289.587 505.317,287.239 505.321,283C505.323,279.975 505.985,268.751 506.791,258.026C508.352,237.276 509.866,212.155 511.373,182.017C511.882,171.842 512.741,157.902 513.282,151.027C513.824,144.152 514.55,134.157 514.898,128.795L515.187,119L533.622,119L552.056,119L551.778,105.25L551.5,91.5L494.865,91.2418L438.23,90.9836L437.296,95.2418C436.973,97.5838 436.413,103.841 436.047,109.203L435.726,119L453.363,119L471,119L470.559,129.25C470.506,134.888 470.102,144.877 469.658,151.477C467.278,186.87 465.724,208.05 465.145,212.959C464.789,215.984 463.854,228.603 463.071,240.978C462.288,253.353 461.188,269.523 460.624,276.948L459.94,290.5L481.302,290.77Z" fill-rule="evenodd" fill="#FDF6DD"/>
<path d="M605.687,291.039L611.667,90.2427C611.667,90.2427 570.635,90.9359 570.554,91.0734C570.472,91.2109 563.71,290.5 563.71,290.5L605.687,291.039Z" fill-rule="evenodd" fill="#FDF6DD"/>
<path d="M691.305,290.764C703.22,290.868 711.197,291.212 715.873,291.06C720.549,290.908 722.604,290.355 722.745,289.859C723.108,288.583 724.664,272.453 726.722,248.559L727.5,235.5L732,235L736.5,234.5L737.53,226C739.817,197.537 740.43,189.487 741.006,180.293L741.304,170L747.164,170L753.023,170L752.762,130.75L752.5,91.5L732.75,91.2289L713,90.9577L712.545,124.229C712.485,142.528 712.155,160.128 711.802,163.428L711.5,169.5L707,170L702.5,170.5L701.887,198.951C701.689,220.183 701.469,227.308 700.548,227.893C699.869,228.324 695.07,228.63 689.655,228.638L679.811,229L680.13,199.75L680.449,170.5L676.089,170.186L671.73,169.872L672.74,138.186C673.105,120.759 673.67,103.066 674,98.8031L674.258,91L654.29,91L634.321,91L633.316,117.25C632.954,131.688 632.657,149.687 632.655,157.25L633,171L636.853,171L640.706,171L641.142,180.75C641.572,186.113 642.201,200.419 642.539,212.519L643.5,234.5L650,235L656.5,235.5L656.864,245.5C657.255,251 658.33,263.44 659.246,273.065L661.251,290.5L691.305,290.764Z" fill-rule="evenodd" fill="#FDF6DD"/>
<path d="M764.09,280.384C764.29,274.814 764.289,267.58 764.089,264.35C763.988,262.736 763.205,263.077 763.139,264.912C763.073,266.748 763.032,270.1 763.032,274.5C763.032,279.459 763.068,282.518 763.131,283.531C763.194,284.544 763.977,283.523 764.09,280.384Z" fill-rule="evenodd" fill="#3A3B42"/>
<path d="M784.981,290.77L805.963,291.04L806.232,267.77L806.5,244.5L825.481,244.228C842.537,243.98 843.504,244.232 844.132,245.854C844.51,246.828 845.297,257.323 845.908,269.285L847.364,291L867.802,291L888.24,291L887.918,279.25C887.55,272.788 886.811,264.081 886.279,259.956C885.157,251.267 883.851,233.876 881.884,201.479C880.952,186.118 880.49,178.441 879.678,174.657C878.866,170.872 877.356,170.653 874.992,170.653C870.358,170.653 869.736,169.804 869.083,163.464C868.59,158.688 862.701,119.88 861.755,115.182C861.407,113.457 860.271,112.653 858,112.653C854.601,112.653 854.735,112.414 852.895,99.5352L851.4,91.5L820.317,91.2359L789.234,90.9718L788.248,96.7359C786.495,112.551 787,111.515 784.124,111.847C781.463,112.155 781.154,112.476 779.508,126.961C778.601,134.936 777.139,147.691 776.258,155.306C775.377,162.92 774.653,169.346 774.653,169.535C774.653,169.63 774.519,169.409 773.839,169.528C773.159,169.646 772.267,169.758 771.236,169.843L767.5,170.5L766.444,208C766.054,228.625 765.267,248.827 764.691,252.952C764.115,257.077 763.643,267.25 763.646,275.5L763.999,290.5L784.981,290.77ZM824.133,203.775L808,204.05L808,187.025L808,170L813,170L818,170L818.48,164.25C818.553,161.087 818.89,149.747 819.229,139.022L819.5,119.5L822,119.5L824.5,119.5L824.859,134C825.247,141.975 825.852,153.357 826.201,159.244L827.179,169.906L832.84,170.203L838.5,170.5L839.383,187L840.266,203.5L824.133,203.775Z" fill-rule="evenodd" fill="#FDF6DD"/>
<path d="M807.092,275.934C807.28,267.919 807.28,257.546 807.093,252.912C807,250.595 806.222,251.082 806.16,253.723C806.098,256.365 806.06,261.175 806.059,267.5C806.059,274.242 806.094,278.499 806.154,279.988C806.215,281.477 806.993,280.206 807.092,275.934Z" fill-rule="evenodd" fill="#84817D"/>
<path d="M947.455,291.116L969,291.039L969.347,287.954C969.347,282.686 966.39,246.799 965.391,239.95C964.87,236.375 964.172,228.755 963.836,222.98C963.5,217.205 961.885,196.047 960.248,175.972C958.61,155.897 956.993,134.846 956.656,129.209L955.699,119L973.349,119C980.7,119 985.141,119.285 987.716,119.075C990.291,118.865 991.347,118.159 991.347,117.559C991.347,116.766 990.732,115.545 990.182,115.205C989.632,114.865 989.347,112.275 989.347,109.088C989.347,105.901 989.05,100.456 988.697,97.0758L987.715,91L932.358,91L877,91L876.653,97.3491C876.653,100.841 876.949,107.199 877.305,111.407L878.293,119L895.518,119L912.743,119L913.069,130.25C913.933,144.693 915.273,162.903 917.137,185.528C917.952,195.428 919.319,213.873 920.174,226.523C922.375,259.07 924.719,288.455 925.19,289.629C925.436,290.241 934.285,290.951 947.455,291.116Z" fill-rule="evenodd" fill="#FDF6DD"/>
<path d="M1079.82,290.761L1121.76,291.022L1121.24,280.011L1120.72,269L1128.99,269L1137.25,269L1137,264.25C1135.88,255.392 1133.48,237.498 1131.92,226.452C1127.28,193.521 1126.05,184.375 1124.83,173.461C1124.08,166.861 1122.79,156.503 1121.96,150.453C1121.13,144.403 1119.95,135.63 1119.33,130.955C1118.72,126.28 1117.57,118.839 1116.78,114.439C1115.99,110.039 1115.35,105.481 1115.35,104.234C1115.35,102.988 1114.75,100.049 1114.09,97.9275L1112.59,94.2535L1104.9,93.583C1100.48,93.2143 1096.33,92.2371 1095.8,91.7111C1094.04,89.9476 1019,90.5949 1018.31,92.3758C1017.87,93.529 1016.29,93.6533 1010.38,93.6533L1002.7,94L1003.1,104.25C1003.51,109.888 1004.25,118.807 1004.73,124.032C1005.22,129.257 1006.08,138.706 1006.65,145.031C1007.22,151.356 1008.14,159.921 1008.69,164.046C1009.25,168.171 1010.14,177.824 1010.67,185.524C1011.2,193.224 1012.1,203.366 1012.67,208.041C1013.76,217.137 1015.04,230.225 1016.72,249.53C1017.29,256.13 1018.09,263.415 1018.48,265.615L1019.5,269.5L1027.41,269.79C1029.67,269.87 1032.06,270.313 1033.57,270.403C1035.07,270.494 1035.68,270.286 1035.69,270.343C1035.71,270.458 1036.13,275.062 1036.63,280.562L1037.88,290.5L1079.82,290.761ZM1075.48,245.774C1066.03,245.925 1058.51,245.418 1058.04,244.947C1057.57,244.476 1056.83,240.061 1056.27,234.881C1055.72,229.701 1054.61,219.835 1053.81,212.96C1053.02,206.085 1051.66,193.714 1050.81,185.464C1049.95,177.214 1048.58,164.61 1047.76,157.46C1046.94,150.31 1045.99,138.729 1045.65,131.717L1044.69,119L1061.21,119L1077.73,119L1078.07,123.75C1078.45,126.362 1079.41,133.717 1080.19,140.042C1083.45,166.543 1084.58,175.128 1085.56,180.688C1086.13,183.918 1087.54,194.64 1088.69,204.54C1089.85,214.44 1091.22,225.559 1091.73,229.239C1092.24,232.92 1092.65,238.047 1092.65,240.692L1093,245.5L1075.48,245.774Z" fill-rule="evenodd" fill="#FDF6DD"/>
<path d="M1182.56,290.769C1190.2,290.862 1196.09,291.193 1199.7,291.061C1203.31,290.929 1205.35,290.334 1205.35,289.961C1205.35,288.682 1203.83,277.967 1201.86,265.446C1201.09,260.496 1199.72,251.499 1198.82,245.449C1197.92,239.399 1196.77,232.539 1196.26,230.233C1195.75,227.927 1195.35,224.954 1195.35,223.536L1195,220.958L1214.73,221.229L1234.45,221.5L1236.84,237C1239.65,252.932 1241.45,263.689 1244.03,279.773C1244.84,284.843 1245.83,289.583 1246.19,290.151C1246.59,290.805 1254.62,291.347 1267.64,291.347L1288.16,291L1287.94,288.25C1287.62,286.738 1286.69,281.393 1285.86,276.443C1285.04,271.493 1283.67,263.835 1282.83,259.435C1281.98,255.035 1280.64,247.838 1279.84,243.438C1275.41,219.011 1275.47,219.16 1261.82,205.787C1258.75,202.78 1256.35,200.035 1256.35,199.382C1256.35,198.73 1259.38,194.351 1263.29,189.296L1270.21,179.814L1268.41,168.157C1263.76,142.896 1260.35,122.691 1260.35,120.391C1260.35,118.676 1256.5,113.759 1247.52,104.182L1234.72,91L1183.86,91L1133,91L1132.67,94.25C1132.68,96.0375 1133.4,102.054 1134.26,107.554C1135.13,113.054 1136.2,121.136 1136.66,125.536C1137.58,134.355 1139.15,145.321 1141.22,157.558C1141.97,161.958 1143.07,170.453 1143.67,176.465C1144.27,182.476 1144.96,187.797 1145.16,188.111C1145.35,188.424 1145.96,192.816 1146.57,198.041C1147.19,203.266 1148.12,209.814 1148.64,212.564C1149.15,215.314 1150.52,224.075 1151.67,232.05C1152.82,240.025 1155.28,256.501 1157.12,268.601L1160.81,290.5L1182.56,290.769ZM1204.72,178.776C1187.25,179.097 1190.15,180.976 1187.86,163.455C1186.4,152.251 1184.27,138.233 1182.4,127.441C1181.82,124.141 1181.36,120.936 1181.35,120.248C1181.35,119.772 1182.06,119.807 1184.75,119.614C1187.44,119.42 1191.76,119.347 1198.38,119.347C1211.07,119.347 1215.76,119.557 1216.51,120.47C1217.78,122.014 1223.65,158.162 1223.65,164.355C1223.65,168.266 1223.65,168.56 1221.7,168.837C1219.7,169.122 1219.19,170.034 1219.45,174.045L1220.08,178.5L1204.72,178.776Z" fill-rule="evenodd" fill="#FDF6DD"/>
<path d="M766.091,238.391C766.285,231.726 766.285,223.148 766.091,219.364C765.994,217.471 765.213,217.896 765.149,220.093C765.085,222.289 765.045,226.275 765.045,231.5C765.046,237.33 765.08,240.927 765.141,242.119C765.202,243.312 765.983,242.11 766.091,238.391Z" fill-rule="evenodd" fill="#84817D"/>
<path d="M355,245.885L372.5,245.576L356.347,245.277C337.174,244.928 337.825,244.685 337.505,245.005C337.436,245.074 339.582,245.732 342.708,245.784C345.835,245.837 350.187,245.874 355,245.885Z" fill-rule="evenodd" fill="#84817D"/>
<path d="M1075.5,245.884L1093.5,245.575L1076.85,245.276C1057.08,244.929 1057.82,244.686 1057.5,245.005C1057.44,245.074 1059.64,245.732 1062.86,245.784C1066.07,245.836 1070.55,245.874 1075.5,245.884Z" fill-rule="evenodd" fill="#84817D"/>
<path d="M354.5,244.886L371.5,244.578L355.847,244.277C337.263,243.928 337.825,243.684 337.505,244.005C337.436,244.074 339.525,244.732 342.561,244.785C345.597,244.837 349.825,244.875 354.5,244.886Z" fill-rule="evenodd" fill="#3A3B42"/>
<path d="M371.465,244.932C371.837,245.086 372.668,243.698 373.016,241.248C373.364,238.797 373.706,234.987 374.048,229.805C375.204,212.255 378.686,174.361 380.826,156.04C381.629,149.165 382.564,138.022 382.904,131.285L383.175,119L366.192,119L349.208,119L348.139,127.162C347.742,131.651 347.055,139.836 346.611,145.384C346.168,150.933 344.87,164.238 343.725,174.963C341.818,192.845 339.255,220.494 337.957,237.197L337.774,244L353.79,244.079C362.79,244.122 370.862,244.682 371.465,244.932Z" fill-rule="evenodd" fill="#181C2D"/>
<path d="M825.5,244.882L844.5,244.571L826.847,244.275C805.903,243.93 806.823,243.687 806.505,244.005C806.436,244.074 808.751,244.732 812.149,244.784C815.548,244.835 820.275,244.872 825.5,244.882Z" fill-rule="evenodd" fill="#84817D"/>
<path d="M1063.83,244.469C1067.42,244.452 1075.18,244.686 1081.5,244.565L1093,244L1093.35,239.942C1093.35,237.709 1092.93,232.824 1092.41,229.144C1091.9,225.464 1090.54,214.36 1089.38,204.46C1088.23,194.56 1086.81,183.798 1086.24,180.568C1085.2,174.64 1083.52,161.751 1080.82,139.106C1080.01,132.312 1078.95,125.219 1078.5,123.488L1077.37,120.5L1061.03,120.224L1044.69,119.949L1044.97,132.254C1045.31,139.021 1046.26,150.435 1047.08,157.569C1047.89,164.703 1049.26,177.286 1050.12,185.536C1050.97,193.786 1052.33,206.165 1053.12,213.04C1053.92,219.915 1055.04,229.848 1055.61,235.073L1056.97,244.5L1063.83,244.469Z" fill-rule="evenodd" fill="#181C2D"/>
<path d="M1081.5,244.9L1093.5,244.606L1082.85,244.288C1070.15,243.921 1069.83,243.676 1069.5,244.005C1069.44,244.074 1070.96,244.734 1073.09,244.789C1075.22,244.844 1078.2,244.885 1081.5,244.9Z" fill-rule="evenodd" fill="#3A3B42"/>
<path d="M200,238.889L215.5,238.585L201.347,238.28C184.532,237.926 184.827,237.682 184.505,238.005C184.436,238.074 186.356,238.733 189.12,238.786C191.884,238.839 195.737,238.878 200,238.889Z" fill-rule="evenodd" fill="#84817D"/>
<path d="M609.092,221.008C609.277,212.483 609.278,201.213 609.095,195.988C609.003,193.375 608.227,193.817 608.166,196.627C608.105,199.436 608.066,204.625 608.066,211.5C608.065,218.375 608.102,222.893 608.163,224.615C608.223,226.337 609,225.27 609.092,221.008Z" fill-rule="evenodd" fill="#84817D"/>
<path d="M643.092,220.394C643.283,213.181 643.283,203.931 643.092,199.869C642.996,197.838 642.216,198.305 642.153,200.682C642.09,203.059 642.051,207.363 642.051,213C642.051,219.254 642.085,223.117 642.146,224.4C642.206,225.683 642.986,224.396 643.092,220.394Z" fill-rule="evenodd" fill="#84817D"/>
<path d="M566.09,218.384C566.29,212.814 566.289,205.58 566.089,202.35C565.988,200.736 565.205,201.077 565.139,202.912C565.073,204.748 565.032,208.1 565.032,212.5C565.032,217.459 565.068,220.518 565.131,221.531C565.194,222.544 565.977,221.523 566.09,218.384Z" fill-rule="evenodd" fill="#84817D"/>
<path d="M702.091,215.922C702.286,209.549 702.286,201.195 702.091,197.394C701.994,195.493 701.213,195.854 701.149,197.954C701.084,200.054 701.044,203.912 701.044,209C701.044,214.491 701.08,217.956 701.142,219.171C701.204,220.386 701.985,219.362 702.091,215.922Z" fill-rule="evenodd" fill="#84817D"/>
<path d="M681.092,205.394C681.283,198.181 681.283,188.931 681.092,184.869C680.996,182.838 680.216,183.305 680.153,185.682C680.09,188.059 680.051,192.363 680.051,198C680.051,204.254 680.085,208.117 680.146,209.4C680.206,210.683 680.986,209.396 681.092,205.394Z" fill-rule="evenodd" fill="#84817D"/>
<path d="M174.095,194.643C174.289,187.567 174.091,181.267 173.779,180.955C173.176,180.352 172.033,180.855 171.531,182.111C171.03,183.368 170.581,185.586 170.276,188.464C170.091,190.215 170.021,191.63 170.063,192.456C170.104,193.282 170.892,193.745 171.145,193.355C171.795,192.356 171.698,192.468 172.092,193.841C172.486,195.214 172.733,197.67 172.851,201.343C172.905,203.039 173.687,203.151 173.786,201.937C173.886,200.723 173.998,198.182 174.095,194.643Z" fill-rule="evenodd" fill="#3A3B42"/>
<path d="M823.5,203.888L839.5,203.583L824.847,203.279C807.443,202.927 807.826,202.683 807.505,203.005C807.436,203.074 809.412,203.733 812.267,203.785C815.122,203.838 819.1,203.877 823.5,203.888Z" fill-rule="evenodd" fill="#84817D"/>
<path d="M840.111,198.254C840.257,195.639 840.029,188.279 839.608,181.954L838.5,170.5L832.84,170.203L827.179,169.906L826.892,159.203C826.543,153.316 825.939,141.958 825.552,133.983C825.21,126.968 825.009,123.29 824.628,121.377C824.247,119.465 823.363,118.989 822.275,118.835L820,118.861L819.653,135.871C819.653,146.133 819.421,152.832 818.818,153.205C818.268,153.545 817.653,157.691 817.653,162.059L818,170L813,170L808,170L808,186.5L808,203L823.75,203.004L839.5,203.008L840.111,198.254Z" fill-rule="evenodd" fill="#181C2D"/>
<path d="M682.089,191.912C682.29,186.631 682.29,179.621 682.089,176.377C681.989,174.755 681.205,175.032 681.139,176.773C681.072,178.513 681.031,181.737 681.03,186C681.03,190.624 681.067,193.552 681.131,194.587C681.195,195.621 681.979,194.776 682.089,191.912Z" fill-rule="evenodd" fill="#3A3B42"/>
<path d="M1205,178.889L1220.5,178.585L1206.35,178.28C1189.53,177.926 1189.83,177.683 1189.5,178.005C1189.44,178.074 1191.36,178.733 1194.12,178.786C1196.88,178.839 1200.74,178.878 1205,178.889Z" fill-rule="evenodd" fill="#84817D"/>
<path d="M1204.97,178.123L1220.04,178.052L1220.12,173.776C1219.88,170.005 1219.81,169.805 1221.8,169.524C1223.75,169.246 1224.35,168.266 1224.35,164.355C1224.35,158.162 1218.31,121.574 1217.05,120.03C1216.3,119.117 1211.07,118.653 1198.38,118.653C1191.76,118.653 1187.39,118.729 1184.7,118.922C1182.01,119.116 1180.66,119.775 1180.66,120.252C1180.66,120.939 1181.14,124.26 1181.72,127.56C1183.59,138.27 1185.55,151.289 1187.15,163.545C1188.01,170.145 1188.93,176.086 1189.17,176.636C1189.42,177.222 1196.16,177.961 1204.97,178.123Z" fill-rule="evenodd" fill="#181C2D"/>
<path d="M633.093,155.397C633.281,147.636 633.281,137.712 633.092,133.374C632.998,131.204 632.219,131.714 632.157,134.271C632.095,136.829 632.056,141.45 632.056,147.5C632.056,154.173 632.09,158.3 632.15,159.674C632.21,161.048 632.988,159.677 633.093,155.397Z" fill-rule="evenodd" fill="#84817D"/>
<path d="M673.09,158.917C673.288,153.09 673.288,145.409 673.091,141.886C672.992,140.125 672.209,140.443 672.144,142.364C672.079,144.284 672.038,147.825 672.038,152.5C672.037,157.561 672.074,160.759 672.137,161.884C672.2,163.008 672.983,162.071 673.09,158.917Z" fill-rule="evenodd" fill="#84817D"/>
<path d="M754.094,148.492C754.27,136.935 754.271,122.07 754.095,115.477C754.008,112.181 753.235,112.901 753.177,116.71C753.119,120.518 753.082,127.425 753.082,136.5C753.082,145.651 753.117,151.57 753.175,153.736C753.232,155.902 754.005,154.319 754.094,148.492Z" fill-rule="evenodd" fill="#3A3B42"/>
<path d="M611.091,149.927C611.284,143.006 611.284,133.98 611.092,129.901C610.996,127.861 610.216,128.263 610.153,130.544C610.09,132.825 610.05,137 610.05,142.5C610.049,148.414 610.085,152.145 610.147,153.451C610.208,154.757 610.988,153.647 611.091,149.927Z" fill-rule="evenodd" fill="#84817D"/>
<path d="M713.094,137.005C713.269,125.18 713.27,109.866 713.096,102.991C713.009,99.5537 712.236,100.257 712.178,104.154C712.121,108.051 712.084,115.15 712.084,124.5C712.083,133.85 712.119,139.94 712.176,142.206C712.234,144.471 713.006,142.918 713.094,137.005Z" fill-rule="evenodd" fill="#84817D"/>
<path d="M820.091,141.856C820.289,135.996 820.288,128.537 820.088,125.323C819.988,123.716 819.205,124.121 819.139,126.052C819.074,127.983 819.033,131.463 819.034,136C819.035,141.296 819.068,144.488 819.13,145.48C819.192,146.473 819.975,145.276 820.091,141.856Z" fill-rule="evenodd" fill="#84817D"/>
<path d="M612.087,132.847C612.297,128.629 612.294,123.181 612.081,120.799C611.975,119.609 611.187,119.89 611.118,121.28C611.049,122.67 611.006,125.2 611.007,128.5C611.009,132.417 611.044,134.782 611.11,135.511C611.175,136.24 611.962,135.351 612.087,132.847Z" fill-rule="evenodd" fill="#3A3B42"/>
<path d="M674.09,124.453C674.286,118.37 674.287,110.242 674.092,106.424C673.995,104.515 673.213,104.811 673.148,106.815C673.084,108.82 673.043,112.55 673.042,117.5C673.042,122.654 673.08,125.99 673.143,127.229C673.206,128.467 673.988,127.619 674.09,124.453Z" fill-rule="evenodd" fill="#84817D"/>
<path d="M956.909,127L957.5,120.5L974,119.962L990.5,119.425L973.25,119.212L956,119L956.159,126.25L956.318,133.5L956.909,127Z" fill-rule="evenodd" fill="#3A3B42"/>
<path d="M570.09,116.453C570.286,110.37 570.287,102.242 570.092,98.4238C569.995,96.5149 569.213,96.811 569.148,98.8154C569.084,100.82 569.043,104.55 569.042,109.5C569.042,114.654 569.08,117.99 569.143,119.229C569.206,120.467 569.988,119.619 570.09,116.453Z" fill-rule="evenodd" fill="#84817D"/>
<path d="M633.089,116.851C633.294,112.086 633.292,105.969 633.084,103.309C632.98,101.979 632.194,102.301 632.126,103.871C632.058,105.442 632.016,108.288 632.017,112C632.019,116.387 632.053,119.031 632.117,119.847C632.181,120.663 632.967,119.666 633.089,116.851Z" fill-rule="evenodd" fill="#3A3B42"/>
<path d="M634.09,114.453C634.286,108.37 634.287,100.242 634.092,96.4238C633.995,94.5149 633.213,94.811 633.148,96.8154C633.084,98.8197 633.043,102.55 633.042,107.5C633.042,112.654 633.08,115.99 633.143,117.229C633.206,118.467 633.988,117.619 634.09,114.453Z" fill-rule="evenodd" fill="#84817D"/>
<path d="M912.367,124.149C912.47,124.263 913.164,123.893 913.232,123.485C913.3,123.077 913.347,122.4 913.347,121.667L913,119L895.75,119.223L878.5,119.447L894.459,119.748C908.851,120.015 910.85,120.361 911.351,121.884C911.664,122.832 912.161,123.919 912.367,124.149Z" fill-rule="evenodd" fill="#3A3B42"/>
<path d="M1077.11,120.933C1077.29,121.111 1077.91,121.165 1078.03,121.071C1078.15,120.976 1078.35,120.488 1078.35,120.167C1078.35,119.741 1076.89,119.118 1074.23,118.969C1071.57,118.819 1067.36,118.796 1061.25,118.877L1044.5,119.448L1060.26,119.746C1069.12,119.909 1076.76,120.579 1077.11,120.933Z" fill-rule="evenodd" fill="#3A3B42"/>
<path d="M453.5,119.884L471.5,119.575L454.847,119.276C435.084,118.929 435.824,118.686 435.505,119.005C435.436,119.074 437.638,119.732 440.855,119.784C444.073,119.836 448.55,119.874 453.5,119.884Z" fill-rule="evenodd" fill="#3A3B42"/>
<path d="M533,119.883L551.5,119.573L534.347,119.275C513.994,118.929 514.824,118.686 514.505,119.005C514.436,119.074 516.695,119.732 520.002,119.784C523.31,119.836 527.912,119.873 533,119.883Z" fill-rule="evenodd" fill="#3A3B42"/>
<path d="M366.5,118.886L383.5,118.578L367.847,118.277C349.263,117.928 349.825,117.684 349.505,118.005C349.436,118.074 351.525,118.732 354.561,118.785C357.597,118.837 361.825,118.875 366.5,118.886Z" fill-rule="evenodd" fill="#84817D"/>
<path d="M553.087,109.375C553.295,104.897 553.294,99.0038 553.085,96.3316C552.981,94.9955 552.194,95.2542 552.126,96.7299C552.058,98.2055 552.015,100.925 552.015,104.5C552.016,108.554 552.053,111.064 552.118,111.9C552.183,112.736 552.969,111.913 553.087,109.375Z" fill-rule="evenodd" fill="#84817D"/>
<path d="M675,71L654.5,71L634,71L634,81L634,91L654,91L674,91L675,71Z" fill-rule="evenodd" fill="#F05827"/>
<path d="M612,71L592.107,71C569.11,71 570.764,72.6706 570.89,73.0622L571,91L591,91L611,91L612,71Z" fill-rule="evenodd" fill="#F05827"/>
<path d="M932.71,91L988.296,91L988.06,82.0107C987.74,77.0666 987.145,72.3843 986.801,71.8284C986.393,71.1673 966.877,70.6533 930.941,70.6533L876,71L875.835,89.25C875.885,94.2688 932.71,91 932.71,91Z" fill-rule="evenodd" fill="#F05827"/>
<path d="M754,71L733.5,71L713,71L713,80.9789L713,90.9577L732.75,91.2289L752.5,91.5L754,71Z" fill-rule="evenodd" fill="#F05827"/>
<path d="M295.9,90.052C296.609,85.377 297.228,79.1476 297.27,76.2601L297,71L270,71C262.575,71 255.816,70.6815 250.914,70.7268C246.011,70.7721 242.624,71.1145 242.611,71.1833C242.238,73.0872 239.715,89.7541 239.688,90.4875C239.677,90.8123 242.37,91.3967 246.922,91.518C251.474,91.6393 258.232,91.6567 267.001,91.5653L294,90.9372L293.787,94.7186C293.83,95.952 294.654,96.2588 294.894,95.4639C295.134,94.669 295.479,92.8245 295.9,90.052Z" fill-rule="evenodd" fill="#F05827"/>
<path d="M437.986,93.3692L438.147,90.9678L495.074,91.2339L552,91.5L552,81.25L552,71L495.5,71C472.931,71 458.798,70.7176 450.315,70.9091C441.833,71.1006 438.653,71.7661 438.653,72.2756C438.653,72.9772 438.246,78.4611 437.748,84.497C437.498,87.515 437.325,90.0153 437.248,91.5937C437.171,93.172 437.854,93.9924 437.986,93.3692Z" fill-rule="evenodd" fill="#F05827"/>
<path d="M613.085,86.3686C613.297,82.436 613.296,77.2115 613.082,74.8191C612.976,73.6229 612.188,73.8413 612.118,75.1372C612.048,76.4332 612.004,78.8376 612.005,82.0001C612.005,85.5852 612.044,87.8179 612.11,88.5663C612.177,89.3148 612.965,88.5976 613.085,86.3686Z" fill-rule="evenodd" fill="#3A3B42"/>
<path d="M410.956,92.0886C411.028,91.8136 411.398,86.9324 411.766,81.2949L412.092,71L373.065,71L334.038,71L333.182,73.25C332.486,76.318 330.67,88.2038 330.661,89.7479C330.658,90.2372 333.096,90.8983 338.993,91.0885C344.89,91.2786 354.593,91.3467 369.77,91.3467C391.093,91.3467 408.766,91.6122 409.302,92.0247C409.57,92.231 409.964,92.4256 410.165,92.471C410.365,92.5163 410.919,92.2261 410.956,92.0886Z" fill-rule="evenodd" fill="#F05827"/>
<path d="M1019.16,91.9617C1019.55,91.5361 1036.81,91.4224 1057.82,91.573C1074.64,91.6935 1084.18,91.7169 1089.44,91.5453C1094.7,91.3737 1096,90.5276 1095.72,89.8672C1095.38,89.0422 1094.75,84.9836 1094.3,80.7304C1093.85,76.4772 1093.15,72.394 1092.81,71.8347C1092.4,71.1746 1078.69,70.6533 1054.29,70.6533L1016.69,71L1017.09,81.75C1017.3,84.7063 1017.57,87.357 1017.84,89.1652C1018.1,90.9734 1018.96,92.1744 1019.16,91.9617Z" fill-rule="evenodd" fill="#F05827"/>
<path d="M851.3,91.5552C851.428,91.624 851.948,90.3497 851.86,88.7637C851.773,87.1778 851.587,84.9387 851.327,82.4637C850.806,77.5137 850.374,72.9326 850.364,72.2451C850.357,71.7592 848.359,71.1053 843.792,70.9142C839.225,70.7232 831.743,70.6533 820.136,70.6533L790.272,71L789.289,75.6396C788.939,78.1913 788.653,82.6913 788.653,85.6396L789,91L820,91C837.05,91 851.045,91.4177 851.3,91.5552Z" fill-rule="evenodd" fill="#F05827"/>
<path d="M170.5,70.87L200.5,70.5467L171.847,70.266C137.908,69.9375 140.816,69.6942 140.505,70.0049C140.436,70.0736 143.991,70.7305 149.383,70.7801C154.775,70.8296 162.25,70.8636 170.5,70.87Z" fill-rule="evenodd" fill="#3A3B42"/>
<path d="M270,70.872L297.5,70.5506L271.347,70.2674C240.363,69.9362 242.817,69.6929 242.505,70.0049C242.436,70.0736 245.709,70.7307 250.648,70.7806C255.587,70.8305 262.437,70.865 270,70.872Z" fill-rule="evenodd" fill="#3A3B42"/>
<path d="M372.5,70.8649L411.5,70.5365L373.847,70.2624C329.265,69.9409 333.812,69.6974 333.505,70.0049C333.436,70.0736 338.004,70.73 345.027,70.7786C352.051,70.8272 361.775,70.8599 372.5,70.8649Z" fill-rule="evenodd" fill="#3A3B42"/>
<path d="M496,70.8595L552.5,70.5256L497.347,70.2586C466.822,70.1118 441.161,69.6469 440.748,69.6492C440.336,69.6515 439.642,69.8673 439.505,70.0048C439.436,70.0736 445.973,70.7294 456.169,70.777C466.364,70.8246 480.462,70.8559 496,70.8595Z" fill-rule="evenodd" fill="#3A3B42"/>
<path d="M591.5,70.8806L611.5,70.5678L592.847,70.2735C570.723,69.9309 571.822,69.6877 571.505,70.0049C571.436,70.0736 573.864,70.7317 577.443,70.7831C581.023,70.8346 586,70.8712 591.5,70.8806Z" fill-rule="evenodd" fill="#3A3B42"/>
<path d="M654,70.8798L674.5,70.5663L655.347,70.273C632.633,69.9314 633.822,69.6882 633.505,70.0049C633.436,70.0736 635.92,70.7316 639.59,70.7829C643.261,70.8342 648.362,70.8707 654,70.8798Z" fill-rule="evenodd" fill="#3A3B42"/>
<path d="M733.5,70.8806L753.5,70.5678L734.847,70.2735C712.723,69.9309 713.822,69.6877 713.505,70.0049C713.436,70.0736 715.864,70.7317 719.443,70.7831C723.023,70.8346 728,70.8712 733.5,70.8806Z" fill-rule="evenodd" fill="#3A3B42"/>
<path d="M820,70.8704L849.5,70.5474L821.347,70.2662C787.999,69.9372 790.816,69.694 790.505,70.0049C790.436,70.0737 793.934,70.7306 799.236,70.7802C804.537,70.8298 811.887,70.8639 820,70.8704Z" fill-rule="evenodd" fill="#3A3B42"/>
<path d="M939.5,70.8619L986.5,70.5305L940.847,70.2603C915.547,70.1118 894.16,69.6457 893.748,69.6484C893.335,69.6511 892.642,69.8674 892.505,70.0049C892.436,70.0736 897.904,70.7296 906.378,70.7777C914.851,70.8258 926.575,70.8577 939.5,70.8619Z" fill-rule="evenodd" fill="#3A3B42"/>
<path d="M1055,70.8656L1092.5,70.5378L1056.35,70.2629C1013.54,69.9404 1017.81,69.697 1017.5,70.0049C1017.44,70.0736 1021.83,70.73 1028.59,70.7788C1035.34,70.8275 1044.69,70.8604 1055,70.8656Z" fill-rule="evenodd" fill="#3A3B42"/>
<path d="M1183.5,70.86L1237.5,70.5267L1184.85,70.259C1155.7,70.1118 1131.16,69.6466 1130.75,69.649C1130.34,69.6514 1129.64,69.8674 1129.5,70.0049C1129.44,70.0737 1135.69,70.7294 1145.43,70.7771C1155.18,70.8249 1168.65,70.8563 1183.5,70.86Z" fill-rule="evenodd" fill="#3A3B42"/>
<path d="M170.5,52.8822L189.5,52.571L171.847,52.2747C150.903,51.93 151.823,51.6867 151.505,52.0049C151.436,52.0736 153.751,52.7319 157.149,52.7836C160.548,52.8354 165.275,52.8724 170.5,52.8822Z" fill-rule="evenodd" fill="#3A3B42"/>
<path d="M216.5,52.8733L242.5,52.5533L217.847,52.2683C188.636,51.9354 190.818,51.6921 190.505,52.0049C190.436,52.0736 193.54,52.7309 198.207,52.781C202.874,52.8312 209.35,52.866 216.5,52.8733Z" fill-rule="evenodd" fill="#3A3B42"/>
<path d="M288.5,52.8622L334.5,52.5312L289.847,52.2606C265.097,52.1117 244.16,51.6456 243.748,51.6483C243.335,51.6511 242.642,51.8674 242.505,52.0049C242.436,52.0736 247.792,52.7297 256.084,52.7778C264.376,52.8259 275.85,52.858 288.5,52.8622Z" fill-rule="evenodd" fill="#3A3B42"/>
<path d="M357,52.8771L379.5,52.5609L358.347,52.271C333.271,51.933 334.82,51.6898 334.505,52.0049C334.436,52.0736 337.146,52.7313 341.178,52.7821C345.211,52.833 350.812,52.8687 357,52.8771Z" fill-rule="evenodd" fill="#3A3B42"/>
<path d="M421,52.8638L462.5,52.5344L422.347,52.2617C374.808,51.9416 379.812,51.698 379.505,52.0049C379.436,52.0736 384.285,52.7298 391.762,52.7783C399.238,52.8267 409.587,52.8591 421,52.8638Z" fill-rule="evenodd" fill="#3A3B42"/>
<path d="M556,52.8567L628.5,52.5201L557.347,52.2568C518.022,52.1119 485.161,51.6483 484.748,51.6501C484.336,51.6519 483.642,51.8673 483.505,52.0048C483.436,52.0736 491.774,52.729 504.869,52.7762C517.964,52.8233 536.062,52.8539 556,52.8567Z" fill-rule="evenodd" fill="#3A3B42"/>
<path d="M668.5,52.8663L704.5,52.5393L669.847,52.2634C628.813,51.9399 632.813,51.6965 632.505,52.0049C632.436,52.0736 636.666,52.7301 643.146,52.779C649.626,52.8279 658.6,52.8609 668.5,52.8663Z" fill-rule="evenodd" fill="#3A3B42"/>
<path d="M762.5,52.8591L820.5,52.5249L763.847,52.2584C732.497,52.1118 706.161,51.6471 705.748,51.6493C705.336,51.6515 704.642,51.8674 704.505,52.0049C704.436,52.0736 711.142,52.7293 721.609,52.7769C732.077,52.8245 746.55,52.8557 762.5,52.8591Z" fill-rule="evenodd" fill="#3A3B42"/>
<path d="M853,52.8759L876.5,52.5585L854.347,52.2702C828.089,51.9337 829.819,51.6906 829.505,52.0049C829.436,52.0737 832.258,52.7312 836.472,52.7818C840.686,52.8324 846.537,52.8679 853,52.8759Z" fill-rule="evenodd" fill="#3A3B42"/>
<path d="M1036.5,52.8686L1068.5,52.5439L1037.85,52.265C1001.54,51.9384 1004.81,51.6951 1004.5,52.0049C1004.44,52.0737 1008.22,52.7304 1013.97,52.7797C1019.73,52.829 1027.7,52.8626 1036.5,52.8686Z" fill-rule="evenodd" fill="#3A3B42"/>
<path d="M1088,52.883L1106.5,52.5727L1089.35,52.2753C1068.99,51.9295 1069.82,51.6862 1069.5,52.0049C1069.44,52.0736 1071.69,52.732 1075,52.7839C1078.31,52.8358 1082.91,52.873 1088,52.883Z" fill-rule="evenodd" fill="#3A3B42"/>
<path d="M1220,52.8798L1240.5,52.5663L1221.35,52.273C1198.63,51.9314 1199.82,51.6882 1199.5,52.0049C1199.44,52.0736 1201.92,52.7316 1205.59,52.7829C1209.26,52.8342 1214.36,52.8707 1220,52.8798Z" fill-rule="evenodd" fill="#3A3B42"/>
</g>
</svg>
